<svg width="80" height="80" viewBox="0 0 80 80" fill="none" xmlns="http://www.w3.org/2000/svg">
<g clip-path="url(#clip0_2009_949)">
<path d="M33.4 79.6C14.4 76.2 0 59.8 0 40C0 18 18 0 40 0C62 0 80 18 80 40C80 59.8 65.6 76.2 46.6 79.6L44.4 77.8H35.6L33.4 79.6Z" fill="url(#paint0_linear_2009_949)"/>
<path d="M55.5996 51.2001L57.3996 40.0001H46.7996V32.2001C46.7996 29.0001 47.9996 26.6001 52.7996 26.6001H57.9996V16.4001C55.1996 16.0001 51.9996 15.6001 49.1996 15.6001C39.9996 15.6001 33.5996 21.2001 33.5996 31.2001V40.0001H23.5996V51.2001H33.5996V79.4001C35.7996 79.8001 37.9996 80.0001 40.1996 80.0001C42.3996 80.0001 44.5996 79.8001 46.7996 79.4001V51.2001H55.5996Z" fill="white"/>
</g>
<defs>
<linearGradient id="paint0_linear_2009_949" x1="40.002" y1="77.2178" x2="40.002" y2="-0.0147355" gradientUnits="userSpaceOnUse">
<stop stop-color="#0062E0"/>
<stop offset="1" stop-color="#19AFFF"/>
</linearGradient>
<clipPath id="clip0_2009_949">
<rect width="80" height="80" fill="white"/>
</clipPath>
</defs>
</svg>
