<svg width="80" height="80" viewBox="0 0 80 80" fill="none" xmlns="http://www.w3.org/2000/svg">
<g clip-path="url(#clip0_2009_952)">
<path d="M61.965 0H18.035C8.07454 0 0 8.07454 0 18.035V61.965C0 71.9255 8.07454 80 18.035 80H61.965C71.9255 80 80 71.9255 80 61.965V18.035C80 8.07454 71.9255 0 61.965 0Z" fill="#06C755"/>
<path d="M66.6649 36.23C66.6649 24.295 54.6999 14.585 39.9924 14.585C25.2849 14.585 13.3199 24.295 13.3199 36.23C13.3199 46.93 22.8199 55.8925 35.6249 57.585C36.4949 57.7725 37.6774 58.1575 37.9749 58.9C38.2449 59.575 38.1524 60.6325 38.0624 61.3125C38.0624 61.3125 37.7499 63.195 37.6824 63.595C37.5649 64.27 37.1449 66.2325 39.9924 65.035C42.8399 63.8375 55.3524 55.99 60.9474 49.5475C64.8124 45.31 66.6649 41 66.6649 36.23Z" fill="white"/>
<path d="M57.79 43.1226H50.29C50.1574 43.1226 50.0303 43.0699 49.9365 42.9762C49.8427 42.8824 49.79 42.7552 49.79 42.6226V30.9851C49.79 30.8525 49.8427 30.7253 49.9365 30.6316C50.0303 30.5378 50.1574 30.4851 50.29 30.4851H57.79C57.9226 30.4851 58.0498 30.5378 58.1436 30.6316C58.2374 30.7253 58.29 30.8525 58.29 30.9851V32.8776C58.29 33.0102 58.2374 33.1374 58.1436 33.2312C58.0498 33.3249 57.9226 33.3776 57.79 33.3776H52.6975V35.3401H57.79C57.9226 35.3401 58.0498 35.3928 58.1436 35.4866C58.2374 35.5803 58.29 35.7075 58.29 35.8401V37.7501C58.29 37.8827 58.2374 38.0099 58.1436 38.1037C58.0498 38.1974 57.9226 38.2501 57.79 38.2501H52.6975V40.2151H57.79C57.9226 40.2151 58.0498 40.2678 58.1436 40.3616C58.2374 40.4553 58.29 40.5825 58.29 40.7151V42.6051C58.2924 42.6722 58.2812 42.7391 58.2571 42.8018C58.233 42.8645 58.1966 42.9217 58.1499 42.97C58.1033 43.0183 58.0473 43.0567 57.9855 43.0829C57.9237 43.1092 57.8572 43.1226 57.79 43.1226Z" fill="#06C755"/>
<path d="M30.0725 43.1224C30.2051 43.1224 30.3322 43.0697 30.426 42.976C30.5198 42.8822 30.5725 42.755 30.5725 42.6224V40.7324C30.5725 40.5998 30.5198 40.4726 30.426 40.3789C30.3322 40.2851 30.2051 40.2324 30.0725 40.2324H24.98V30.9824C24.98 30.8498 24.9273 30.7226 24.8335 30.6289C24.7397 30.5351 24.6126 30.4824 24.48 30.4824H22.58C22.4473 30.4824 22.3202 30.5351 22.2264 30.6289C22.1326 30.7226 22.08 30.8498 22.08 30.9824V42.6149C22.08 42.7475 22.1326 42.8747 22.2264 42.9685C22.3202 43.0622 22.4473 43.1149 22.58 43.1149H30.08L30.0725 43.1224Z" fill="#06C755"/>
<path d="M34.5825 30.4624H32.6925C32.4108 30.4624 32.1825 30.6907 32.1825 30.9724V42.6124C32.1825 42.8941 32.4108 43.1224 32.6925 43.1224H34.5825C34.8642 43.1224 35.0925 42.8941 35.0925 42.6124V30.9724C35.0925 30.6907 34.8642 30.4624 34.5825 30.4624Z" fill="#06C755"/>
<path d="M47.46 30.4624H45.57C45.4374 30.4624 45.3102 30.5151 45.2164 30.6088C45.1227 30.7026 45.07 30.8298 45.07 30.9624V37.8774L39.745 30.6849C39.7329 30.6659 39.7186 30.6482 39.7025 30.6324L39.6725 30.6024L39.645 30.5799H39.63L39.6025 30.5599H39.5875L39.56 30.5449H39.5425H39.515H39.4975H39.4675H39.4475H39.4175H39.3975H39.37H37.4425C37.3099 30.5449 37.1827 30.5976 37.089 30.6913C36.9952 30.7851 36.9425 30.9123 36.9425 31.0449V42.6849C36.9425 42.8175 36.9952 42.9447 37.089 43.0385C37.1827 43.1322 37.3099 43.1849 37.4425 43.1849H39.335C39.4676 43.1849 39.5948 43.1322 39.6886 43.0385C39.7823 42.9447 39.835 42.8175 39.835 42.6849V35.7024L45.1675 42.9024C45.2024 42.9534 45.2465 42.9975 45.2975 43.0324L45.3275 43.0524H45.3425L45.3675 43.0649H45.3925H45.41H45.445C45.4892 43.0758 45.5345 43.0817 45.58 43.0824H47.46C47.5926 43.0824 47.7198 43.0297 47.8136 42.936C47.9073 42.8422 47.96 42.715 47.96 42.5824V30.9724C47.9613 30.9059 47.9494 30.8398 47.9249 30.778C47.9003 30.7162 47.8637 30.6599 47.8171 30.6124C47.7706 30.5649 47.715 30.5271 47.6537 30.5014C47.5924 30.4756 47.5265 30.4624 47.46 30.4624Z" fill="#06C755"/>
</g>
<defs>
<clipPath id="clip0_2009_952">
<rect width="80" height="80" fill="white"/>
</clipPath>
</defs>
</svg>
