<svg width="80" height="80" viewBox="0 0 80 80" fill="none" xmlns="http://www.w3.org/2000/svg">
<g clip-path="url(#clip0_2009_961)">
<path d="M40.0194 0.607178C23.5702 0.607178 18.7594 0.624147 17.8243 0.70172C14.4487 0.982318 12.3481 1.51382 10.0597 2.65318C8.29612 3.52891 6.90525 4.54403 5.53257 5.96702C3.03264 8.56209 1.51754 11.7547 0.969067 15.5498C0.702408 17.3921 0.624835 17.7679 0.609078 27.1785C0.603017 30.3154 0.609078 34.4437 0.609078 39.9811C0.609078 56.417 0.627259 61.2229 0.706045 62.1562C0.978764 65.441 1.4939 67.5076 2.58478 69.7681C4.66956 74.0953 8.65126 77.3436 13.342 78.5557C14.9662 78.9739 16.7601 79.2042 19.0631 79.3133C20.0388 79.3557 29.9839 79.386 39.9352 79.386C49.8864 79.386 59.8376 79.3739 60.7891 79.3254C63.4557 79.2 65.0041 78.9921 66.7162 78.5497C71.4372 77.3315 75.3462 74.1316 77.4734 69.7439C78.5431 67.5379 79.0855 65.3925 79.3309 62.2793C79.3843 61.6005 79.4067 50.7784 79.4067 39.9708C79.4067 29.1615 79.3825 18.3594 79.3291 17.6806C79.0807 14.5171 78.5382 12.3899 77.434 10.1414C76.528 8.30088 75.522 6.92638 74.0614 5.52097C71.4548 3.03135 68.267 1.51624 64.4684 0.968379C62.6278 0.702326 62.2612 0.623541 52.8433 0.607178H40.0194Z" fill="url(#paint0_radial_2009_961)"/>
<path d="M40.0194 0.607178C23.5702 0.607178 18.7594 0.624147 17.8243 0.70172C14.4487 0.982318 12.3481 1.51382 10.0597 2.65318C8.29612 3.52891 6.90525 4.54403 5.53257 5.96702C3.03264 8.56209 1.51754 11.7547 0.969067 15.5498C0.702408 17.3921 0.624835 17.7679 0.609078 27.1785C0.603017 30.3154 0.609078 34.4437 0.609078 39.9811C0.609078 56.417 0.627259 61.2229 0.706045 62.1562C0.978764 65.441 1.4939 67.5076 2.58478 69.7681C4.66956 74.0953 8.65126 77.3436 13.342 78.5557C14.9662 78.9739 16.7601 79.2042 19.0631 79.3133C20.0388 79.3557 29.9839 79.386 39.9352 79.386C49.8864 79.386 59.8376 79.3739 60.7891 79.3254C63.4557 79.2 65.0041 78.9921 66.7162 78.5497C71.4372 77.3315 75.3462 74.1316 77.4734 69.7439C78.5431 67.5379 79.0855 65.3925 79.3309 62.2793C79.3843 61.6005 79.4067 50.7784 79.4067 39.9708C79.4067 29.1615 79.3825 18.3594 79.3291 17.6806C79.0807 14.5171 78.5382 12.3899 77.434 10.1414C76.528 8.30088 75.522 6.92638 74.0614 5.52097C71.4548 3.03135 68.267 1.51624 64.4684 0.968379C62.6278 0.702326 62.2612 0.623541 52.8433 0.607178H40.0194Z" fill="url(#paint1_radial_2009_961)"/>
<path d="M40.0013 10.9099C32.1009 10.9099 31.1094 10.9445 28.0065 11.0857C24.9096 11.2275 22.7957 11.7178 20.9461 12.4371C19.0328 13.1801 17.4098 14.1741 15.7929 15.7916C14.1748 17.4085 13.1809 19.0315 12.4354 20.9442C11.7142 22.7944 11.2233 24.9089 11.084 28.0045C10.9452 31.1075 10.9088 32.0996 10.9088 39.9999C10.9088 47.9003 10.944 48.8888 11.0846 51.9917C11.227 55.0886 11.7173 57.2024 12.436 59.0521C13.1797 60.9654 14.1736 62.5883 15.7911 64.2053C17.4074 65.8234 19.0304 66.8197 20.9424 67.5627C22.7933 68.2821 24.9078 68.7724 28.0041 68.9142C31.107 69.0554 32.0979 69.09 39.9976 69.09C47.8986 69.09 48.8871 69.0554 51.99 68.9142C55.0869 68.7724 57.2032 68.2821 59.054 67.5627C60.9667 66.8197 62.5872 65.8234 64.2036 64.2053C65.8217 62.5883 66.8156 60.9654 67.561 59.0527C68.2762 57.2025 68.7671 55.088 68.9125 51.9923C69.0519 48.8894 69.0883 47.9003 69.0883 39.9999C69.0883 32.0996 69.0519 31.1081 68.9125 28.0052C68.7671 24.9083 68.2762 22.7944 67.561 20.9448C66.8156 19.0315 65.8217 17.4085 64.2036 15.7916C62.5854 14.1734 60.9673 13.1795 59.0522 12.4371C57.1977 11.7178 55.0826 11.2275 51.9858 11.0857C48.8828 10.9445 47.895 10.9099 39.9922 10.9099H40.0013ZM37.3916 16.1522C38.1662 16.151 39.0304 16.1522 40.0013 16.1522C47.7683 16.1522 48.6889 16.1801 51.7561 16.3194C54.5923 16.4491 56.1317 16.9231 57.1571 17.3212C58.5146 17.8485 59.4825 18.4788 60.5 19.4969C61.5182 20.5151 62.1485 21.4847 62.6769 22.8423C63.0751 23.8665 63.5496 25.4058 63.6787 28.2421C63.8181 31.3087 63.8484 32.2299 63.8484 39.9933C63.8484 47.7567 63.8181 48.6779 63.6787 51.7444C63.549 54.5807 63.0751 56.1201 62.6769 57.1443C62.1497 58.5018 61.5182 59.4684 60.5 60.486C59.4819 61.5041 58.5153 62.1344 57.1571 62.6617C56.1329 63.0617 54.5923 63.5344 51.7561 63.6641C48.6895 63.8035 47.7683 63.8338 40.0013 63.8338C32.2336 63.8338 31.313 63.8035 28.2465 63.6641C25.4102 63.5332 23.8708 63.0592 22.8448 62.6611C21.4873 62.1338 20.5176 61.5035 19.4995 60.4854C18.4813 59.4672 17.851 58.5 17.3226 57.1418C16.9244 56.1176 16.4499 54.5783 16.3208 51.742C16.1814 48.6754 16.1535 47.7542 16.1535 39.986C16.1535 32.2178 16.1814 31.3014 16.3208 28.2348C16.4505 25.3986 16.9244 23.8592 17.3226 22.8338C17.8498 21.4763 18.4813 20.5066 19.4995 19.4884C20.5176 18.4703 21.4873 17.84 22.8448 17.3115C23.8702 16.9115 25.4102 16.4388 28.2465 16.3085C30.93 16.1873 31.97 16.151 37.3916 16.1449V16.1522ZM55.5293 20.9823C53.6021 20.9823 52.0385 22.5441 52.0385 24.4719C52.0385 26.3991 53.6021 27.9627 55.5293 27.9627C57.4565 27.9627 59.0201 26.3991 59.0201 24.4719C59.0201 22.5447 57.4565 20.9811 55.5293 20.9811V20.9823ZM40.0013 25.061C31.7512 25.061 25.0623 31.7499 25.0623 39.9999C25.0623 48.25 31.7512 54.9359 40.0013 54.9359C48.2513 54.9359 54.9378 48.25 54.9378 39.9999C54.9378 31.7499 48.2513 25.061 40.0013 25.061ZM40.0013 30.3033C45.3563 30.3033 49.6979 34.6443 49.6979 39.9999C49.6979 45.3549 45.3563 49.6966 40.0013 49.6966C34.6457 49.6966 30.3046 45.3549 30.3046 39.9999C30.3046 34.6443 34.6457 30.3033 40.0013 30.3033Z" fill="white"/>
</g>
<defs>
<radialGradient id="paint0_radial_2009_961" cx="0" cy="0" r="1" gradientUnits="userSpaceOnUse" gradientTransform="translate(21.5378 85.4536) rotate(-90) scale(78.0756 72.6363)">
<stop stop-color="#FFDD55"/>
<stop offset="0.1" stop-color="#FFDD55"/>
<stop offset="0.5" stop-color="#FF543E"/>
<stop offset="1" stop-color="#C837AB"/>
</radialGradient>
<radialGradient id="paint1_radial_2009_961" cx="0" cy="0" r="1" gradientUnits="userSpaceOnUse" gradientTransform="translate(-12.5931 6.28227) rotate(78.6776) scale(34.9005 143.898)">
<stop stop-color="#3771C8"/>
<stop offset="0.128" stop-color="#3771C8"/>
<stop offset="1" stop-color="#6600FF" stop-opacity="0"/>
</radialGradient>
<clipPath id="clip0_2009_961">
<rect width="80" height="79.9976" fill="white" transform="translate(0 0.0012207)"/>
</clipPath>
</defs>
</svg>
