<svg width="180" height="40" viewBox="0 0 180 40" fill="none" xmlns="http://www.w3.org/2000/svg">
<g clip-path="url(#clip0_1_139)">
<path d="M40.3616 12.3048C33.1642 6.86148 22.6957 7.69328 11.5504 16.55C11.5116 16.5198 11.5504 16.55 11.5116 16.5241C14.8862 8.08117 28.1864 2.23704 33.6038 0.543276C33.9141 0.44415 33.8538 0.00454712 33.5306 0.00454712H9.18865C8.39995 0.00454712 7.65435 0.345024 7.13286 0.93978C-2.78837 12.2919 0.275921 31.9231 1.08186 35.5563C1.13789 35.8149 1.43957 35.8753 1.53439 35.6425C2.56444 33.0523 3.96944 29.8156 7.93018 27.0487C12.3003 23.9931 18.4763 23.9586 19.7822 27.484C20.6399 29.7984 19.7089 34.3065 12.8736 36.845C9.33949 38.1552 6.51655 38.6896 3.37038 39.3404C3.04714 39.405 3.09455 39.8791 3.4221 39.8791H18.2608C30.0913 39.8791 43.4087 35.552 45.1455 24.7085C45.8351 20.4073 44.0422 15.0889 40.366 12.3091L40.3616 12.3048Z" fill="#231815"/>
<path d="M84.4899 11.2745C83.7399 10.6625 82.7961 10.1841 81.6885 9.85229C80.0119 9.35235 77.8829 9.24892 75.5728 9.47734C74.7798 9.55491 74.004 9.64111 73.2455 9.73593C72.487 9.83074 71.7629 9.91694 71.0777 9.99452C70.401 10.0721 69.7933 10.1109 69.2762 10.1109C68.0091 10.1109 67.0652 9.89108 66.4618 9.45579C65.8714 9.02912 65.5826 8.49901 65.5826 7.83098C65.5826 7.49051 65.6775 7.14141 65.8585 6.79231C66.0395 6.44753 66.3713 6.12429 66.8454 5.83984C67.3367 5.54246 68.0091 5.2968 68.8409 5.10717C69.6856 4.91323 70.776 4.8141 72.0862 4.8141C73.0128 4.8141 73.9308 4.87013 74.8186 4.97788C75.7021 5.08562 76.577 5.23216 77.4217 5.42179C78.2492 5.6028 79.0595 5.82691 79.8309 6.08119C80.6024 6.33547 81.3264 6.61561 81.9815 6.90868L82.1582 6.99057L84.4769 2.6204L84.2787 2.52989C83.4641 2.15494 82.5677 1.80584 81.6109 1.49553C80.6627 1.18954 79.6628 0.918017 78.6328 0.698216C77.6114 0.478415 76.5425 0.306022 75.4565 0.185346C74.3704 0.0646711 73.2757 0.0043335 72.2068 0.0043335C70.7243 0.0043335 69.3839 0.112079 68.2159 0.327571C67.048 0.543062 66.005 0.84475 65.1172 1.22401C64.2207 1.60328 63.445 2.06443 62.8114 2.59454C62.1736 3.12465 61.6478 3.70217 61.2513 4.31416C60.8504 4.93047 60.5531 5.58556 60.3677 6.2579C60.1867 6.93023 60.0919 7.61549 60.0919 8.29644C60.0919 9.45148 60.3246 10.4772 60.7901 11.3521C61.2513 12.2227 61.8805 12.9554 62.6606 13.5329C63.4363 14.1104 64.3371 14.5457 65.3413 14.8345C66.3369 15.1189 67.3928 15.2654 68.4788 15.2654C69.121 15.2654 69.8235 15.2223 70.5605 15.1318C71.2888 15.0456 72.0301 14.9465 72.78 14.8431C73.53 14.7396 74.2669 14.6405 74.9996 14.5543C75.7194 14.4681 76.4175 14.425 77.0683 14.425C78.5251 14.425 79.6111 14.6707 80.2964 15.162C80.9687 15.6447 81.2963 16.2739 81.2963 17.0971C81.2963 17.61 81.1584 18.0884 80.8911 18.5237C80.6239 18.959 80.18 19.3425 79.581 19.6615C78.9647 19.989 78.1544 20.2519 77.1718 20.4372C76.1848 20.6269 74.9651 20.7217 73.5429 20.7217C72.362 20.7217 71.2371 20.6484 70.1985 20.5062C69.1555 20.3597 68.147 20.1528 67.2074 19.8813C66.2636 19.6097 65.3413 19.2693 64.4621 18.8728C63.5829 18.4806 62.7037 18.028 61.8417 17.5281L61.6736 17.429L58.8679 21.7991L59.0532 21.9069C59.9669 22.4413 60.9711 22.9369 62.0356 23.3808C63.1045 23.8248 64.2423 24.2126 65.4232 24.5316C66.5954 24.8505 67.8496 25.0962 69.1426 25.2729C70.4269 25.4453 71.7629 25.5315 73.1119 25.5315C75.1591 25.5315 77.0425 25.3332 78.7061 24.941C80.3826 24.5488 81.835 23.9584 83.0245 23.1912C84.2226 22.4198 85.1622 21.4587 85.813 20.3338C86.4638 19.2046 86.7956 17.9031 86.7956 16.4679C86.7956 15.3904 86.6017 14.4035 86.2138 13.5286C85.8259 12.6537 85.2441 11.8952 84.4899 11.2788V11.2745Z" fill="#231815"/>
<path d="M94.5232 0.0043335H89.0972V25.5271H94.5232V0.0043335Z" fill="#231815"/>
<path d="M124.58 10.9556H111.491V15.4594H119.796C119.645 16.2007 119.374 16.8773 118.986 17.4807C118.555 18.1487 117.99 18.7262 117.301 19.2003C116.611 19.6744 115.788 20.0494 114.857 20.3079C113.926 20.5665 112.879 20.7001 111.75 20.7001C110.327 20.7001 109.03 20.4976 107.888 20.0925C106.746 19.6916 105.763 19.1271 104.962 18.4159C104.16 17.7091 103.535 16.8515 103.104 15.8731C102.669 14.8905 102.449 13.7958 102.449 12.6192C102.449 11.4426 102.66 10.4255 103.074 9.47735C103.488 8.52918 104.095 7.7017 104.884 7.02074C105.673 6.33548 106.655 5.79675 107.81 5.41749C108.965 5.03391 110.301 4.83997 111.78 4.83997C112.418 4.83997 113.064 4.87445 113.706 4.94772C114.348 5.02098 114.973 5.12873 115.564 5.26664C116.163 5.40887 116.727 5.57695 117.24 5.7752C117.762 5.97346 118.227 6.20188 118.628 6.44323L118.805 6.55097L121.248 2.43078L121.067 2.32734C120.369 1.92653 119.619 1.57743 118.844 1.28867C118.064 0.995604 117.258 0.754254 116.447 0.568931C115.637 0.379299 114.801 0.237074 113.961 0.150878C113.12 0.0603712 112.28 0.0172729 111.457 0.0172729C109.164 0.0172729 107.095 0.34482 105.311 0.986984C103.526 1.62915 102.001 2.52559 100.768 3.64184C99.5399 4.76239 98.5917 6.10275 97.9495 7.62412C97.3117 9.14118 96.9841 10.7918 96.9841 12.5373C96.9841 14.2828 97.316 16.024 97.9711 17.5971C98.6262 19.1745 99.5873 20.5665 100.824 21.7388C102.061 22.9111 103.587 23.8506 105.362 24.523C107.134 25.1953 109.168 25.5401 111.405 25.5401C113.004 25.5401 114.499 25.3591 115.844 25.01C117.189 24.6566 118.413 24.1523 119.477 23.5145C120.537 22.8766 121.464 22.1008 122.231 21.2087C122.998 20.3166 123.606 19.3253 124.046 18.2651C124.485 17.2006 124.757 16.0498 124.856 14.8517C124.955 13.6536 124.873 12.4037 124.614 11.1366L124.58 10.9729V10.9556Z" fill="#231815"/>
<path d="M148.107 6.55958H133.251V0.0043335H127.855V25.5271H133.251V11.3263H148.107V25.5271H153.516V0.0043335H148.107V6.55958Z" fill="#231815"/>
<path d="M156.477 0.0043335V4.88306H165.541V25.5271H170.937V4.88306H180V0.0043335H156.477Z" fill="#231815"/>
<path d="M65.5223 35.9957L63.4493 33.983L63.4277 33.9615H62.1218V39.797H63.4751V35.8233L65.5223 37.7326L67.5694 35.8233V39.797H68.9227V33.9615H67.6169L65.5223 35.9957Z" fill="#231815"/>
<path d="M90.0799 37.168C90.0799 37.4136 90.0454 37.6334 89.9765 37.8231C89.9075 38.0084 89.8084 38.1678 89.6705 38.2971C89.5369 38.4264 89.3645 38.5256 89.1662 38.5902C88.9637 38.6592 88.7223 38.6936 88.4508 38.6936C88.1793 38.6936 87.9379 38.6592 87.7354 38.5902C87.5371 38.5213 87.369 38.4221 87.2311 38.2971C87.0975 38.1678 86.9941 38.0084 86.9251 37.8231C86.8562 37.6334 86.8217 37.4136 86.8217 37.168V33.9615H85.4684V37.3059C85.4684 37.6895 85.5373 38.0386 85.6709 38.3532C85.8046 38.6678 86.0028 38.9436 86.2571 39.1677C86.5114 39.3918 86.826 39.5685 87.1966 39.6892C87.563 39.8099 87.9853 39.8702 88.4508 39.8702C88.9162 39.8702 89.3386 39.8099 89.7049 39.6892C90.0713 39.5685 90.3859 39.3918 90.6445 39.1677C90.8988 38.9436 91.097 38.6678 91.2306 38.3532C91.3642 38.0386 91.4332 37.6851 91.4332 37.3059V33.9615H90.0799V37.168Z" fill="#231815"/>
<path d="M113.939 36.5086C113.749 36.3621 113.517 36.25 113.241 36.1724C112.827 36.0561 112.301 36.0345 111.728 36.0862C111.534 36.1035 111.344 36.125 111.159 36.1466L110.629 36.2069C110.457 36.2241 110.314 36.2328 110.189 36.2328C109.888 36.2328 109.659 36.181 109.517 36.0862C109.384 35.9957 109.315 35.8793 109.315 35.7414C109.315 35.6682 109.336 35.5949 109.379 35.5173C109.422 35.4397 109.5 35.3708 109.608 35.3105C109.724 35.2458 109.883 35.1898 110.09 35.1424C110.297 35.0993 110.564 35.0734 110.883 35.0734C111.107 35.0734 111.332 35.0863 111.551 35.1122C111.775 35.1381 111.987 35.1725 112.189 35.2156C112.392 35.2587 112.59 35.3105 112.78 35.3708C112.961 35.4268 113.137 35.4915 113.305 35.5604L113.374 35.5906L113.978 34.5174L113.896 34.483C113.693 34.3968 113.474 34.3149 113.236 34.2416C113.008 34.1727 112.767 34.1123 112.504 34.0563C112.25 34.0046 111.987 33.9658 111.724 33.9356C111.069 33.8667 110.431 33.8839 109.939 33.9701C109.651 34.0218 109.396 34.0908 109.172 34.1813C108.948 34.2718 108.754 34.3795 108.599 34.5045C108.444 34.6295 108.31 34.7631 108.207 34.9096C108.103 35.0562 108.03 35.2113 107.987 35.3708C107.94 35.5303 107.918 35.6897 107.918 35.8535C107.918 36.125 107.979 36.3707 108.095 36.5819C108.211 36.7887 108.371 36.9611 108.565 37.099C108.759 37.2326 108.983 37.3361 109.233 37.405C109.483 37.474 109.741 37.5042 110.008 37.5042C110.168 37.5042 110.336 37.4955 110.521 37.474C110.698 37.4524 110.883 37.4309 111.064 37.405C111.25 37.3792 111.431 37.3576 111.607 37.3361C111.788 37.3145 111.956 37.3059 112.112 37.3059C112.465 37.3059 112.724 37.3619 112.887 37.474C113.043 37.5774 113.116 37.7153 113.116 37.892C113.116 38.0041 113.086 38.1075 113.021 38.2023C112.956 38.2972 112.853 38.3834 112.711 38.4566C112.56 38.5299 112.366 38.5902 112.129 38.6333C111.892 38.6764 111.59 38.698 111.245 38.698C110.952 38.698 110.676 38.6807 110.426 38.6463C110.172 38.6118 109.927 38.5644 109.698 38.4997C109.47 38.4394 109.246 38.3618 109.03 38.267C108.81 38.1722 108.595 38.0687 108.392 37.9567L108.328 37.9222L107.599 38.991L107.677 39.0341C107.901 39.1591 108.147 39.2712 108.414 39.3789C108.681 39.4824 108.961 39.5729 109.25 39.6461C109.534 39.7194 109.845 39.7797 110.164 39.8185C110.483 39.8573 110.81 39.8789 111.142 39.8789C111.646 39.8789 112.112 39.8315 112.521 39.741C112.935 39.6504 113.297 39.5125 113.59 39.3315C113.887 39.1505 114.124 38.9221 114.284 38.6592C114.448 38.392 114.529 38.086 114.529 37.7412C114.529 37.4869 114.482 37.2542 114.383 37.043C114.284 36.8361 114.142 36.6551 113.952 36.5086H113.939Z" fill="#231815"/>
<path d="M132.139 33.9615H130.777V39.797H132.139V33.9615Z" fill="#231815"/>
<path d="M154.055 38.1765L153.986 38.2153C153.865 38.2842 153.727 38.3445 153.581 38.4049C153.434 38.4609 153.283 38.5126 153.133 38.5557C152.973 38.5988 152.809 38.629 152.65 38.6549C152.486 38.6764 152.318 38.6893 152.15 38.6893C151.784 38.6893 151.447 38.6419 151.154 38.5471C150.866 38.4523 150.616 38.3273 150.417 38.1635C150.219 37.9998 150.064 37.8058 149.961 37.5817C149.857 37.3619 149.801 37.1119 149.801 36.8447C149.801 36.5775 149.853 36.3491 149.952 36.1336C150.051 35.9224 150.198 35.7371 150.392 35.5776C150.585 35.4225 150.831 35.2975 151.116 35.2113C151.404 35.1251 151.736 35.0777 152.107 35.0777C152.262 35.0777 152.417 35.0863 152.577 35.1079C152.732 35.1251 152.887 35.151 153.038 35.1898C153.184 35.2242 153.327 35.2673 153.456 35.3147C153.585 35.3621 153.697 35.4182 153.796 35.4828L153.865 35.5259L154.503 34.5088L154.426 34.4657C154.081 34.2718 153.697 34.1252 153.292 34.0304C152.887 33.9356 152.439 33.8882 151.96 33.8882C151.409 33.8882 150.909 33.9658 150.469 34.1123C150.03 34.2631 149.655 34.47 149.349 34.7372C149.043 35.0044 148.806 35.319 148.642 35.6768C148.478 36.0345 148.4 36.4267 148.4 36.8404C148.4 37.2542 148.482 37.6636 148.637 38.0342C148.793 38.4049 149.034 38.7281 149.349 38.9996C149.659 39.2712 150.051 39.4867 150.517 39.6418C150.978 39.797 151.521 39.8745 152.128 39.8745C152.607 39.8745 153.068 39.8185 153.486 39.7021C153.913 39.5901 154.292 39.4306 154.619 39.2281L154.688 39.185L154.055 38.1765Z" fill="#231815"/>
<path d="M177.759 39.8745V38.3402H174.065L176.539 35.8664L175.453 34.7803L172.673 37.5558V33.8882H171.139V37.5817L168.338 34.7803L167.247 35.8664L169.721 38.3402H166.053V39.8745H177.759Z" fill="#231815"/>
</g>
<defs>
<clipPath id="clip0_1_139">
<rect width="180" height="39.8745" fill="white"/>
</clipPath>
</defs>
</svg>
