<svg width="180" height="41" viewBox="0 0 180 41" fill="none" xmlns="http://www.w3.org/2000/svg">
<g clip-path="url(#clip0_5_259)">
<path d="M40.3616 13.1794C33.1642 7.73609 22.6957 8.56789 11.5504 17.4246C11.5116 17.3944 11.5504 17.4246 11.5116 17.3987C14.8862 8.95577 28.1864 3.11164 33.6038 1.41788C33.9141 1.31875 33.8538 0.87915 33.5306 0.87915H9.18865C8.39995 0.87915 7.65435 1.21963 7.13286 1.81438C-2.78837 13.1665 0.275921 32.7977 1.08186 36.4309C1.13789 36.6895 1.43957 36.7499 1.53439 36.5171C2.56444 33.9269 3.96944 30.6902 7.93018 27.9233C12.3003 24.8677 18.4763 24.8332 19.7822 28.3586C20.6399 30.673 19.7089 35.1811 12.8736 37.7196C9.33949 39.0298 6.51655 39.5642 3.37038 40.215C3.04714 40.2796 3.09455 40.7537 3.4221 40.7537H18.2608C30.0913 40.7537 43.4087 36.4266 45.1455 25.5831C45.8351 21.2819 44.0422 15.9636 40.366 13.1837L40.3616 13.1794Z" fill="white"/>
<path d="M43.4604 3.23208C43.8095 3.16313 44.0551 2.84851 44.0465 2.47786C44.0379 2.06843 43.6845 1.73657 43.2794 1.73657H42.6372C42.5812 1.73657 42.5381 1.77967 42.5381 1.8357V4.00354C42.5381 4.05957 42.5812 4.10267 42.6372 4.10267H42.8958C42.9518 4.10267 42.9949 4.05957 42.9949 4.00354V3.33552C42.9949 3.31397 43.0251 3.30535 43.038 3.32259L43.5681 4.0294C43.5681 4.0294 43.6069 4.10267 43.6845 4.10267H43.9345C43.9345 4.10267 43.9733 4.09836 43.9905 4.08543C44.0379 4.05526 44.0465 3.99061 44.0164 3.94751L43.4647 3.23208H43.4604ZM42.9949 2.27099C42.9949 2.22789 43.0294 2.19341 43.0725 2.19341H43.2837C43.4604 2.19341 43.6026 2.33995 43.5897 2.51234C43.5768 2.66319 43.4518 2.78386 43.2966 2.78386H43.0768C43.0337 2.78386 42.9992 2.74938 42.9992 2.70628V2.26668L42.9949 2.27099Z" fill="white"/>
<path d="M43.2405 4.96454C42.051 4.96454 41.1934 4.10688 41.1934 2.91737C41.1934 1.72786 42.051 0.874512 43.2405 0.874512C44.43 0.874512 45.2877 1.73217 45.2877 2.92168C45.2877 4.11119 44.43 4.96885 43.2405 4.96885V4.96454ZM43.2405 1.31411C42.3527 1.31411 41.633 2.03386 41.633 2.92168C41.633 3.80951 42.3527 4.52925 43.2405 4.52925C44.1284 4.52925 44.8481 3.80951 44.8481 2.92168C44.8481 2.03386 44.1284 1.31411 43.2405 1.31411Z" fill="white"/>
<path d="M84.4899 12.1491C83.7399 11.5371 82.7961 11.0587 81.6885 10.7269C80.0119 10.2269 77.8829 10.1235 75.5728 10.3519C74.7798 10.4295 74.004 10.5157 73.2455 10.6105C72.487 10.7053 71.7629 10.7915 71.0777 10.8691C70.401 10.9467 69.7933 10.9855 69.2762 10.9855C68.0091 10.9855 67.0652 10.7657 66.4618 10.3304C65.8714 9.90369 65.5826 9.37358 65.5826 8.70556C65.5826 8.36508 65.6775 8.01598 65.8585 7.66689C66.0395 7.3221 66.3713 6.99886 66.8454 6.71441C67.3367 6.41704 68.0091 6.17138 68.8409 5.98174C69.6856 5.7878 70.776 5.68868 72.0862 5.68868C73.0128 5.68868 73.9308 5.7447 74.8186 5.85245C75.7021 5.96019 76.577 6.10673 77.4217 6.29636C78.2492 6.47737 79.0595 6.70148 79.8309 6.95576C80.6024 7.21004 81.3264 7.49018 81.9815 7.78325L82.1582 7.86514L84.4769 3.49497L84.2787 3.40447C83.4641 3.02951 82.5677 2.68041 81.6109 2.37011C80.6627 2.06411 79.6628 1.79259 78.6328 1.57279C77.6114 1.35299 76.5425 1.18059 75.4565 1.05992C74.3704 0.939244 73.2757 0.878906 72.2068 0.878906C70.7243 0.878906 69.3839 0.986652 68.2159 1.20214C67.048 1.41763 66.005 1.71932 65.1172 2.09859C64.2207 2.47785 63.445 2.939 62.8114 3.46911C62.1736 3.99922 61.6478 4.57674 61.2513 5.18874C60.8504 5.80504 60.5531 6.46013 60.3677 7.13247C60.1867 7.8048 60.0919 8.49006 60.0919 9.17102C60.0919 10.3261 60.3246 11.3518 60.7901 12.2267C61.2513 13.0973 61.8805 13.8299 62.6606 14.4075C63.4363 14.985 64.3371 15.4203 65.3413 15.709C66.3369 15.9935 67.3928 16.14 68.4788 16.14C69.121 16.14 69.8235 16.0969 70.5605 16.0064C71.2888 15.9202 72.0301 15.8211 72.78 15.7176C73.53 15.6142 74.2669 15.5151 74.9996 15.4289C75.7194 15.3427 76.4175 15.2996 77.0683 15.2996C78.5251 15.2996 79.6111 15.5453 80.2964 16.0366C80.9687 16.5193 81.2963 17.1485 81.2963 17.9717C81.2963 18.4846 81.1584 18.9629 80.8911 19.3982C80.6239 19.8335 80.18 20.2171 79.581 20.536C78.9647 20.8636 78.1544 21.1265 77.1718 21.3118C76.1848 21.5014 74.9651 21.5963 73.5429 21.5963C72.362 21.5963 71.2371 21.523 70.1985 21.3808C69.1555 21.2342 68.147 21.0274 67.2074 20.7558C66.2636 20.4843 65.3413 20.1438 64.4621 19.7473C63.5829 19.3551 62.7037 18.9026 61.8417 18.4027L61.6736 18.3035L58.8679 22.6737L59.0532 22.7815C59.9669 23.3159 60.9711 23.8115 62.0356 24.2554C63.1045 24.6993 64.2423 25.0872 65.4232 25.4061C66.5954 25.7251 67.8496 25.9707 69.1426 26.1474C70.4269 26.3198 71.7629 26.406 73.1119 26.406C75.1591 26.406 77.0425 26.2078 78.7061 25.8156C80.3826 25.4234 81.835 24.8329 83.0245 24.0658C84.2226 23.2943 85.1622 22.3332 85.813 21.2084C86.4638 20.0792 86.7956 18.7776 86.7956 17.3425C86.7956 16.265 86.6017 15.278 86.2138 14.4031C85.8259 13.5283 85.2441 12.7697 84.4899 12.1534V12.1491Z" fill="white"/>
<path d="M94.5232 0.878906H89.0972V26.4017H94.5232V0.878906Z" fill="white"/>
<path d="M124.58 11.8302H111.491V16.334H119.796C119.645 17.0753 119.374 17.7519 118.986 18.3553C118.555 19.0233 117.99 19.6008 117.301 20.0749C116.611 20.549 115.788 20.9239 114.857 21.1825C113.926 21.4411 112.879 21.5747 111.75 21.5747C110.327 21.5747 109.03 21.3722 107.888 20.967C106.746 20.5662 105.763 20.0016 104.962 19.2905C104.16 18.5837 103.535 17.726 103.104 16.7477C102.669 15.7651 102.449 14.6704 102.449 13.4938C102.449 12.3172 102.66 11.3001 103.074 10.3519C103.488 9.40376 104.095 8.57627 104.884 7.89532C105.673 7.21005 106.655 6.67133 107.81 6.29206C108.965 5.90849 110.301 5.71454 111.78 5.71454C112.418 5.71454 113.064 5.74902 113.706 5.82229C114.348 5.89556 114.973 6.0033 115.564 6.14122C116.163 6.28344 116.727 6.45152 117.24 6.64978C117.762 6.84803 118.227 7.07645 118.628 7.3178L118.805 7.42555L121.248 3.30535L121.067 3.20191C120.369 2.8011 119.619 2.452 118.844 2.16325C118.064 1.87018 117.258 1.62883 116.447 1.4435C115.637 1.25387 114.801 1.11165 113.961 1.02545C113.12 0.934944 112.28 0.891846 111.457 0.891846C109.164 0.891846 107.095 1.21939 105.311 1.86156C103.526 2.50372 102.001 3.40017 100.768 4.51641C99.5399 5.63697 98.5917 6.97732 97.9495 8.49869C97.3117 10.0158 96.9841 11.6664 96.9841 13.4119C96.9841 15.1574 97.316 16.8986 97.9711 18.4716C98.6262 20.049 99.5873 21.4411 100.824 22.6134C102.061 23.7857 103.587 24.7252 105.362 25.3975C107.134 26.0699 109.168 26.4147 111.405 26.4147C113.004 26.4147 114.499 26.2336 115.844 25.8845C117.189 25.5311 118.413 25.0269 119.477 24.389C120.537 23.7512 121.464 22.9754 122.231 22.0833C122.998 21.1911 123.606 20.1999 124.046 19.1397C124.485 18.0751 124.757 16.9244 124.856 15.7263C124.955 14.5281 124.873 13.2783 124.614 12.0112L124.58 11.8474V11.8302Z" fill="white"/>
<path d="M148.107 7.43416H133.251V0.878906H127.855V26.4017H133.251V12.2008H148.107V26.4017H153.516V0.878906H148.107V7.43416Z" fill="white"/>
<path d="M156.477 0.878906V5.75763H165.541V26.4017H170.937V5.75763H180V0.878906H156.477Z" fill="white"/>
<path d="M65.5223 36.8702L63.4493 34.8575L63.4277 34.8359H62.1218V40.6714H63.4751V36.6978L65.5223 38.607L67.5694 36.6978V40.6714H68.9227V34.8359H67.6169L65.5223 36.8702Z" fill="white"/>
<path d="M90.0799 38.0424C90.0799 38.2881 90.0454 38.5079 89.9765 38.6975C89.9075 38.8829 89.8084 39.0423 89.6705 39.1716C89.5369 39.3009 89.3645 39.4 89.1662 39.4647C88.9637 39.5337 88.7223 39.5681 88.4508 39.5681C88.1793 39.5681 87.9379 39.5337 87.7354 39.4647C87.5371 39.3957 87.369 39.2966 87.2311 39.1716C87.0975 39.0423 86.9941 38.8829 86.9251 38.6975C86.8562 38.5079 86.8217 38.2881 86.8217 38.0424V34.8359H85.4684V38.1804C85.4684 38.5639 85.5373 38.913 85.6709 39.2277C85.8046 39.5423 86.0028 39.8181 86.2571 40.0422C86.5114 40.2663 86.826 40.443 87.1966 40.5637C87.563 40.6844 87.9853 40.7447 88.4508 40.7447C88.9162 40.7447 89.3386 40.6844 89.7049 40.5637C90.0713 40.443 90.3859 40.2663 90.6445 40.0422C90.8988 39.8181 91.097 39.5423 91.2306 39.2277C91.3642 38.913 91.4332 38.5596 91.4332 38.1804V34.8359H90.0799V38.0424Z" fill="white"/>
<path d="M113.939 37.3831C113.749 37.2366 113.517 37.1245 113.241 37.0469C112.827 36.9306 112.301 36.909 111.728 36.9607C111.534 36.978 111.344 36.9995 111.159 37.0211L110.629 37.0814C110.457 37.0986 110.314 37.1073 110.189 37.1073C109.888 37.1073 109.659 37.0556 109.517 36.9607C109.384 36.8702 109.315 36.7539 109.315 36.6159C109.315 36.5427 109.336 36.4694 109.379 36.3918C109.422 36.3143 109.5 36.2453 109.608 36.185C109.724 36.1203 109.883 36.0643 110.09 36.0169C110.297 35.9738 110.564 35.9479 110.883 35.9479C111.107 35.9479 111.332 35.9609 111.551 35.9867C111.775 36.0126 111.987 36.047 112.189 36.0901C112.392 36.1332 112.59 36.185 112.78 36.2453C112.961 36.3013 113.137 36.366 113.305 36.4349L113.374 36.4651L113.978 35.392L113.896 35.3575C113.693 35.2713 113.474 35.1894 113.236 35.1161C113.008 35.0472 112.767 34.9868 112.504 34.9308C112.25 34.8791 111.987 34.8403 111.724 34.8101C111.069 34.7412 110.431 34.7584 109.939 34.8446C109.651 34.8963 109.396 34.9653 109.172 35.0558C108.948 35.1463 108.754 35.254 108.599 35.379C108.444 35.504 108.31 35.6376 108.207 35.7841C108.103 35.9307 108.03 36.0858 107.987 36.2453C107.94 36.4048 107.918 36.5642 107.918 36.728C107.918 36.9995 107.979 37.2452 108.095 37.4564C108.211 37.6632 108.371 37.8356 108.565 37.9735C108.759 38.1071 108.983 38.2106 109.233 38.2795C109.483 38.3485 109.741 38.3787 110.008 38.3787C110.168 38.3787 110.336 38.37 110.521 38.3485C110.698 38.3269 110.883 38.3054 111.064 38.2795C111.25 38.2537 111.431 38.2321 111.607 38.2106C111.788 38.189 111.956 38.1804 112.112 38.1804C112.465 38.1804 112.724 38.2364 112.887 38.3485C113.043 38.4519 113.116 38.5898 113.116 38.7666C113.116 38.8786 113.086 38.982 113.021 39.0769C112.956 39.1717 112.853 39.2579 112.711 39.3311C112.56 39.4044 112.366 39.4647 112.129 39.5078C111.892 39.5509 111.59 39.5725 111.245 39.5725C110.952 39.5725 110.676 39.5552 110.426 39.5208C110.172 39.4863 109.927 39.4389 109.698 39.3742C109.47 39.3139 109.246 39.2363 109.03 39.1415C108.81 39.0467 108.595 38.9433 108.392 38.8312L108.328 38.7967L107.599 39.8656L107.677 39.9087C107.901 40.0336 108.147 40.1457 108.414 40.2534C108.681 40.3569 108.961 40.4474 109.25 40.5207C109.534 40.5939 109.845 40.6543 110.164 40.693C110.483 40.7318 110.81 40.7534 111.142 40.7534C111.646 40.7534 112.112 40.706 112.521 40.6155C112.935 40.525 113.297 40.387 113.59 40.206C113.887 40.025 114.124 39.7966 114.284 39.5337C114.448 39.2665 114.529 38.9605 114.529 38.6157C114.529 38.3614 114.482 38.1287 114.383 37.9175C114.284 37.7106 114.142 37.5296 113.952 37.3831H113.939Z" fill="white"/>
<path d="M132.139 34.8359H130.777V40.6714H132.139V34.8359Z" fill="white"/>
<path d="M154.055 39.051L153.986 39.0898C153.865 39.1587 153.727 39.2191 153.581 39.2794C153.434 39.3354 153.283 39.3871 153.133 39.4302C152.973 39.4733 152.809 39.5035 152.65 39.5294C152.486 39.5509 152.318 39.5638 152.15 39.5638C151.784 39.5638 151.447 39.5164 151.154 39.4216C150.866 39.3268 150.616 39.2018 150.417 39.038C150.219 38.8743 150.064 38.6803 149.961 38.4562C149.857 38.2364 149.801 37.9864 149.801 37.7192C149.801 37.452 149.853 37.2236 149.952 37.0081C150.051 36.7969 150.198 36.6116 150.392 36.4522C150.585 36.297 150.831 36.172 151.116 36.0858C151.404 35.9996 151.736 35.9522 152.107 35.9522C152.262 35.9522 152.417 35.9608 152.577 35.9824C152.732 35.9996 152.887 36.0255 153.038 36.0643C153.184 36.0987 153.327 36.1418 153.456 36.1893C153.585 36.2367 153.697 36.2927 153.796 36.3573L153.865 36.4004L154.503 35.3833L154.426 35.3402C154.081 35.1463 153.697 34.9997 153.292 34.9049C152.887 34.8101 152.439 34.7627 151.96 34.7627C151.409 34.7627 150.909 34.8403 150.469 34.9868C150.03 35.1377 149.655 35.3445 149.349 35.6117C149.043 35.8789 148.806 36.1936 148.642 36.5513C148.478 36.909 148.4 37.3012 148.4 37.7149C148.4 38.1287 148.482 38.5381 148.637 38.9088C148.793 39.2794 149.034 39.6026 149.349 39.8742C149.659 40.1457 150.051 40.3612 150.517 40.5163C150.978 40.6715 151.521 40.749 152.128 40.749C152.607 40.749 153.068 40.693 153.486 40.5767C153.913 40.4646 154.292 40.3051 154.619 40.1026L154.688 40.0595L154.055 39.051Z" fill="white"/>
<path d="M177.759 40.749V39.2147H174.065L176.539 36.7409L175.453 35.6548L172.673 38.4304V34.7627H171.139V38.4562L168.338 35.6548L167.247 36.7409L169.721 39.2147H166.053V40.749H177.759Z" fill="white"/>
</g>
<defs>
<clipPath id="clip0_5_259">
<rect width="180" height="39.8745" fill="white" transform="translate(0 0.874512)"/>
</clipPath>
</defs>
</svg>
