<svg width="200" height="96" viewBox="0 0 200 96" fill="none" xmlns="http://www.w3.org/2000/svg">
<g clip-path="url(#clip0_2073_182)">
<path d="M36.8269 6.56681H95.0228V0.228638H24.3824C27.8727 1.6592 31.1974 3.507 34.2969 5.74556C35.0321 6.2754 35.9196 6.56681 36.8269 6.56681Z" fill="#EA0029"/>
<path d="M50.4503 19.2166H95.0294V12.8784H42.3306C43.5757 14.1235 45.3175 15.8654 47.3905 17.945C48.1985 18.7596 49.3045 19.2166 50.4503 19.2166Z" fill="#EA0029"/>
<path d="M63.0737 31.8665H95.0228V25.5283H54.9539C56.5898 27.1642 58.2853 28.8663 60.0072 30.5949C60.8152 31.4095 61.9213 31.8665 63.067 31.8665H63.0737Z" fill="#EA0029"/>
<path d="M75.697 44.5163H95.0228V38.1781H67.5773C69.3125 39.92 71.0146 41.6221 72.6306 43.2447C73.4386 44.0593 74.5446 44.5097 75.6904 44.5097L75.697 44.5163Z" fill="#EA0029"/>
<path d="M31.6676 25.5681H-0.0100098V31.9062H38.0058C48.6422 31.9062 58.3978 35.6482 66.0341 41.887C57.9011 31.9261 45.5294 25.5681 31.6676 25.5681Z" fill="#EA0029"/>
<path d="M18.9979 12.8983H-0.0100098V19.2365H25.3294C35.9659 19.2365 45.7215 22.9785 53.3578 29.2173C45.2248 19.2564 32.8531 12.8983 18.9912 12.8983H18.9979Z" fill="#EA0029"/>
<path d="M56.6096 44.9733C54.6691 44.715 52.6889 44.5759 50.6755 44.5759C50.6755 44.5759 50.6755 44.609 50.6755 44.6289V95.2614H56.9872L57.007 50.9671C57.007 50.9671 57.007 50.934 57.007 50.9141C57.007 48.9007 56.8679 46.9138 56.6096 44.9733Z" fill="#EA0029"/>
<path d="M69.6833 69.922C69.6833 66.3058 69.4515 61.7294 69.021 58.1331C68.6369 54.9541 68.266 52.8215 67.3719 49.7484C67.2858 49.4438 66.8818 47.4238 66.6235 47.3244C65.6963 46.9668 61.908 45.0859 61.908 45.0859V45.9667C62.8484 49.5564 63.1663 55.6627 63.3451 59.6961V95.2614H69.6568V69.922H69.6767H69.6833Z" fill="#EA0029"/>
<path d="M82.3531 79.6975C82.3531 75.9489 82.0616 72.2003 81.3993 68.5047C80.2933 62.3387 78.3462 56.8748 75.0479 51.8744C73.7631 51.0267 72.4319 50.2452 71.0609 49.5365C73.2068 53.6759 74.3128 57.9808 75.081 63.1335C75.7235 67.4583 76.0215 71.836 76.0215 76.2072V95.268H82.3332L82.3531 79.6975Z" fill="#EA0029"/>
<path d="M6.32154 0.228638H-0.0100098V6.56681H12.6597C23.2962 6.56681 33.0518 10.3088 40.6881 16.5476C32.5617 6.58667 20.1834 0.228638 6.32154 0.228638Z" fill="#EA0029"/>
<path d="M95.0228 95.2614C95.0228 92.4268 94.9963 89.6518 94.8175 86.89C94.0889 75.8893 89.3469 65.2197 82.3398 56.6959C72.9286 45.2448 61.2325 38.2444 44.3439 38.2444H-0.0100098V44.5826H50.6755C54.126 44.5826 57.57 45.1852 60.9675 45.7879C70.0807 47.4039 82.1213 55.027 86.2606 66.2529C88.1548 71.379 88.6912 77.1675 88.6912 82.5983V95.268H95.0294L95.0228 95.2614Z" fill="#EA0029"/>
<path d="M199.983 0.228638H104.951V95.2614H199.983V0.228638Z" fill="#EA0029"/>
<path d="M116.09 75.0548C116.051 75.0548 116.024 75.0283 116.024 74.9885V70.7167C116.024 70.677 116.051 70.6505 116.09 70.6505H117.74C118.594 70.6505 119.19 71.2002 119.19 72.0148C119.19 72.8295 118.594 73.3858 117.74 73.3858H116.826C116.826 73.3858 116.786 73.399 116.786 73.4255V74.9819C116.786 75.0217 116.759 75.0482 116.72 75.0482H116.084L116.09 75.0548ZM118.428 72.0215C118.428 71.6175 118.15 71.3393 117.7 71.3393H116.832C116.832 71.3393 116.792 71.3525 116.792 71.379V72.6573C116.792 72.6573 116.806 72.697 116.832 72.697H117.7C118.15 72.697 118.428 72.4255 118.428 72.0148V72.0215Z" fill="white"/>
<path d="M120.707 70.7233C120.707 70.6836 120.733 70.6571 120.773 70.6571H123.528C123.568 70.6571 123.594 70.6836 123.594 70.7233V71.2797C123.594 71.3194 123.568 71.3459 123.528 71.3459H121.508C121.508 71.3459 121.468 71.3591 121.468 71.3856V72.4585C121.468 72.4585 121.481 72.4983 121.508 72.4983H123.21C123.25 72.4983 123.276 72.5248 123.276 72.5645V73.1208C123.276 73.1606 123.25 73.1871 123.21 73.1871H121.508C121.508 73.1871 121.468 73.2003 121.468 73.2268V74.3395C121.468 74.3395 121.481 74.3792 121.508 74.3792H123.528C123.568 74.3792 123.594 74.4057 123.594 74.4454V75.0018C123.594 75.0415 123.568 75.068 123.528 75.068H120.773C120.733 75.068 120.707 75.0415 120.707 75.0018V70.73V70.7233Z" fill="white"/>
<path d="M127.707 75.0548C127.654 75.0548 127.627 75.0349 127.608 74.9885L126.767 73.2732H126.011C126.011 73.2732 125.972 73.2864 125.972 73.3129V74.9885C125.972 75.0283 125.945 75.0548 125.906 75.0548H125.27C125.23 75.0548 125.203 75.0283 125.203 74.9885V70.7167C125.203 70.677 125.23 70.6505 125.27 70.6505H126.972C127.78 70.6505 128.376 71.187 128.376 71.9619C128.376 72.5381 128.045 72.9818 127.541 73.1739L128.469 74.9687C128.495 75.015 128.469 75.0548 128.422 75.0548H127.707ZM127.621 71.9685C127.621 71.5843 127.349 71.3393 126.945 71.3393H126.005C126.005 71.3393 125.965 71.3525 125.965 71.379V72.5513C125.965 72.5513 125.978 72.591 126.005 72.591H126.945C127.349 72.591 127.621 72.346 127.621 71.9685Z" fill="white"/>
<path d="M130.025 70.7233C130.025 70.6836 130.052 70.6571 130.091 70.6571H132.846C132.886 70.6571 132.913 70.6836 132.913 70.7233V71.2797C132.913 71.3194 132.886 71.3459 132.846 71.3459H130.826C130.826 71.3459 130.787 71.3591 130.787 71.3856V72.5049C130.787 72.5049 130.8 72.5447 130.826 72.5447H132.529C132.568 72.5447 132.595 72.5711 132.595 72.6109V73.1672C132.595 73.2069 132.568 73.2334 132.529 73.2334H130.826C130.826 73.2334 130.787 73.2467 130.787 73.2732V75.0018C130.787 75.0415 130.76 75.068 130.72 75.068H130.085C130.045 75.068 130.018 75.0415 130.018 75.0018V70.73L130.025 70.7233Z" fill="white"/>
<path d="M134.449 74.0679C134.356 73.7964 134.33 73.5513 134.33 72.8559C134.33 72.1605 134.356 71.9155 134.449 71.6439C134.674 70.9485 135.244 70.5843 135.999 70.5843C136.754 70.5843 137.33 70.9485 137.555 71.6439C137.648 71.9155 137.675 72.1605 137.675 72.8559C137.675 73.5513 137.648 73.7964 137.555 74.0679C137.33 74.7633 136.761 75.1276 135.999 75.1276C135.237 75.1276 134.674 74.7633 134.449 74.0679ZM136.82 73.8692C136.873 73.7103 136.9 73.4785 136.9 72.8626C136.9 72.2466 136.873 72.0148 136.82 71.8559C136.694 71.4982 136.436 71.2797 135.999 71.2797C135.562 71.2797 135.31 71.4982 135.184 71.8559C135.131 72.0148 135.105 72.24 135.105 72.8626C135.105 73.4851 135.131 73.7103 135.184 73.8692C135.31 74.2269 135.568 74.4454 135.999 74.4454C136.429 74.4454 136.694 74.2269 136.82 73.8692Z" fill="white"/>
<path d="M141.827 75.0548C141.774 75.0548 141.748 75.0349 141.728 74.9885L140.887 73.2732H140.132C140.132 73.2732 140.092 73.2864 140.092 73.3129V74.9885C140.092 75.0283 140.065 75.0548 140.026 75.0548H139.39C139.35 75.0548 139.324 75.0283 139.324 74.9885V70.7167C139.324 70.677 139.35 70.6505 139.39 70.6505H141.092C141.9 70.6505 142.496 71.187 142.496 71.9619C142.496 72.5381 142.165 72.9818 141.662 73.1739L142.589 74.9687C142.615 75.015 142.589 75.0548 142.542 75.0548H141.827ZM141.741 71.9685C141.741 71.5843 141.469 71.3393 141.065 71.3393H140.125C140.125 71.3393 140.085 71.3525 140.085 71.379V72.5513C140.085 72.5513 140.098 72.591 140.125 72.591H141.065C141.469 72.591 141.741 72.346 141.741 71.9685Z" fill="white"/>
<path d="M144.145 70.7233C144.145 70.6836 144.172 70.6571 144.211 70.6571H144.788C144.847 70.6571 144.88 70.677 144.9 70.7233L146.112 73.4321H146.139L147.331 70.7233C147.351 70.677 147.384 70.6571 147.443 70.6571H148.013C148.053 70.6571 148.079 70.6836 148.079 70.7233V74.9951C148.079 75.0349 148.053 75.0614 148.013 75.0614H147.45C147.41 75.0614 147.384 75.0349 147.384 74.9951V72.3062H147.357L146.423 74.3726C146.397 74.4322 146.357 74.4587 146.298 74.4587H145.92C145.861 74.4587 145.821 74.4322 145.794 74.3726L144.86 72.3062H144.834V74.9951C144.834 75.0349 144.807 75.0614 144.768 75.0614H144.205C144.165 75.0614 144.139 75.0349 144.139 74.9951V70.7233H144.145Z" fill="white"/>
<path d="M149.848 70.7233C149.848 70.6836 149.874 70.6571 149.914 70.6571H150.55C150.589 70.6571 150.616 70.6836 150.616 70.7233V74.9951C150.616 75.0349 150.589 75.0614 150.55 75.0614H149.914C149.874 75.0614 149.848 75.0349 149.848 74.9951V70.7233Z" fill="white"/>
<path d="M152.397 70.7233C152.397 70.6836 152.424 70.6571 152.464 70.6571H153.06C153.113 70.6571 153.146 70.677 153.172 70.7233L154.967 73.7566H154.994V70.7233C154.994 70.6836 155.02 70.6571 155.06 70.6571H155.623C155.662 70.6571 155.689 70.6836 155.689 70.7233V74.9951C155.689 75.0349 155.662 75.0614 155.623 75.0614H155.033C154.98 75.0614 154.947 75.0415 154.921 74.9951L153.126 71.9685H153.099V74.9951C153.099 75.0349 153.073 75.0614 153.033 75.0614H152.47C152.43 75.0614 152.404 75.0349 152.404 74.9951V70.7233H152.397Z" fill="white"/>
<path d="M157.325 72.8559C157.325 72.1671 157.351 71.9155 157.444 71.6439C157.669 70.9485 158.239 70.5843 159.014 70.5843C159.835 70.5843 160.365 71.0214 160.544 71.5181C160.557 71.5512 160.544 71.5909 160.517 71.6108L159.974 71.8492C159.934 71.8625 159.901 71.8492 159.888 71.8161C159.696 71.4651 159.431 71.273 159 71.273C158.57 71.273 158.298 71.4916 158.173 71.8492C158.12 72.0082 158.093 72.2334 158.093 72.8559C158.093 73.4785 158.12 73.7037 158.173 73.8626C158.298 74.2203 158.557 74.4388 159 74.4388C159.391 74.4388 159.716 74.2468 159.835 73.8891C159.881 73.75 159.908 73.5712 159.908 73.3195C159.908 73.293 159.895 73.2798 159.868 73.2798H159.146C159.106 73.2798 159.08 73.2533 159.08 73.2136V72.697C159.08 72.6572 159.106 72.6307 159.146 72.6307H160.603C160.643 72.6307 160.669 72.6572 160.669 72.697V73.0811C160.669 73.4454 160.636 73.8229 160.563 74.0481C160.352 74.7368 159.769 75.1276 159.014 75.1276C158.259 75.1276 157.669 74.7633 157.444 74.0679C157.351 73.7964 157.325 73.5513 157.325 72.8559Z" fill="white"/>
<path d="M117.17 78.3C117.183 78.2603 117.21 78.2338 117.256 78.2338H117.852C117.898 78.2338 117.925 78.2603 117.938 78.3L119.428 82.5718C119.442 82.6115 119.428 82.638 119.382 82.638H118.746C118.7 82.638 118.673 82.6182 118.66 82.5718L118.369 81.7174H116.713L116.422 82.5718C116.408 82.6182 116.382 82.638 116.335 82.638H115.706C115.66 82.638 115.647 82.6115 115.66 82.5718L117.17 78.3ZM118.137 81.0353L117.554 79.3266H117.534L116.945 81.0353H118.137Z" fill="white"/>
<path d="M123.329 82.6314C123.276 82.6314 123.25 82.6116 123.23 82.5652L122.389 80.8499H121.634C121.634 80.8499 121.594 80.8631 121.594 80.8896V82.5652C121.594 82.6049 121.568 82.6314 121.528 82.6314H120.892C120.852 82.6314 120.826 82.6049 120.826 82.5652V78.2934C120.826 78.2537 120.852 78.2272 120.892 78.2272H122.594C123.402 78.2272 123.998 78.7636 123.998 79.5385C123.998 80.1147 123.667 80.5585 123.164 80.7505L124.091 82.5453C124.117 82.5917 124.091 82.6314 124.045 82.6314H123.329ZM123.243 79.5451C123.243 79.161 122.972 78.916 122.568 78.916H121.627C121.627 78.916 121.587 78.9292 121.587 78.9557V80.128C121.587 80.128 121.601 80.1677 121.627 80.1677H122.568C122.972 80.1677 123.243 79.9227 123.243 79.5451Z" fill="white"/>
<path d="M126.608 82.6314C126.568 82.6314 126.541 82.6049 126.541 82.5652V78.9557C126.541 78.9557 126.528 78.916 126.502 78.916H125.349C125.31 78.916 125.283 78.8895 125.283 78.8497V78.2934C125.283 78.2537 125.31 78.2272 125.349 78.2272H128.495C128.535 78.2272 128.561 78.2537 128.561 78.2934V78.8497C128.561 78.8895 128.535 78.916 128.495 78.916H127.343C127.343 78.916 127.303 78.9292 127.303 78.9557V82.5652C127.303 82.6049 127.277 82.6314 127.237 82.6314H126.601H126.608Z" fill="white"/>
<path d="M129.767 82.1214C129.767 82.1214 129.727 82.0552 129.753 82.0221L130.157 81.5585C130.157 81.5585 130.224 81.5254 130.25 81.5585C130.535 81.7837 130.952 82.0221 131.449 82.0221C131.972 82.0221 132.277 81.7572 132.277 81.3863C132.277 81.0684 132.085 80.8631 131.475 80.777L131.244 80.7439C130.396 80.6247 129.919 80.2207 129.919 79.4921C129.919 78.6974 130.502 78.1675 131.409 78.1675C131.959 78.1675 132.482 78.3397 132.833 78.6047C132.866 78.6311 132.873 78.6576 132.846 78.6974L132.535 79.1742C132.535 79.1742 132.476 79.214 132.442 79.1941C132.085 78.9623 131.754 78.8497 131.389 78.8497C130.946 78.8497 130.701 79.0948 130.701 79.4391C130.701 79.7438 130.913 79.9491 131.509 80.0352L131.74 80.0683C132.588 80.1875 133.052 80.5849 133.052 81.3399C133.052 82.095 132.489 82.7043 131.396 82.7043C130.747 82.7043 130.124 82.446 129.78 82.1214H129.767Z" fill="white"/>
<path d="M136.814 80.4326C136.814 79.7438 136.84 79.4921 136.933 79.2206C137.158 78.5252 137.728 78.1609 138.502 78.1609C139.324 78.1609 139.854 78.598 140.032 79.0948C140.046 79.1279 140.032 79.1676 140.006 79.1875L139.463 79.4259C139.423 79.4392 139.39 79.4259 139.377 79.3928C139.185 79.0418 138.92 78.8497 138.489 78.8497C138.059 78.8497 137.787 79.0683 137.661 79.4259C137.608 79.5849 137.582 79.81 137.582 80.4326C137.582 81.0552 137.608 81.2803 137.661 81.4393C137.787 81.7969 138.045 82.0155 138.489 82.0155C138.88 82.0155 139.204 81.8234 139.324 81.4658C139.37 81.3267 139.397 81.1479 139.397 80.8962C139.397 80.8697 139.383 80.8565 139.357 80.8565H138.635C138.595 80.8565 138.569 80.83 138.569 80.7902V80.2736C138.569 80.2339 138.595 80.2074 138.635 80.2074H140.092C140.132 80.2074 140.158 80.2339 140.158 80.2736V80.6578C140.158 81.022 140.125 81.3995 140.052 81.6247C139.84 82.3135 139.257 82.7043 138.502 82.7043C137.747 82.7043 137.158 82.34 136.933 81.6446C136.84 81.3731 136.814 81.128 136.814 80.4326Z" fill="white"/>
<path d="M144.311 82.6314C144.258 82.6314 144.231 82.6116 144.211 82.5652L143.37 80.8499H142.615C142.615 80.8499 142.576 80.8631 142.576 80.8896V82.5652C142.576 82.6049 142.549 82.6314 142.509 82.6314H141.873C141.834 82.6314 141.807 82.6049 141.807 82.5652V78.2934C141.807 78.2537 141.834 78.2272 141.873 78.2272H143.576C144.384 78.2272 144.98 78.7636 144.98 79.5385C144.98 80.1147 144.648 80.5585 144.145 80.7505L145.072 82.5453C145.099 82.5917 145.072 82.6314 145.026 82.6314H144.311ZM144.225 79.5451C144.225 79.161 143.953 78.916 143.549 78.916H142.609C142.609 78.916 142.569 78.9292 142.569 78.9557V80.128C142.569 80.128 142.582 80.1677 142.609 80.1677H143.549C143.953 80.1677 144.225 79.9227 144.225 79.5451Z" fill="white"/>
<path d="M146.596 81.638C146.503 81.3664 146.476 81.1214 146.476 80.426C146.476 79.7306 146.503 79.4855 146.596 79.214C146.821 78.5186 147.39 78.1543 148.145 78.1543C148.9 78.1543 149.477 78.5186 149.702 79.214C149.795 79.4855 149.821 79.7306 149.821 80.426C149.821 81.1214 149.795 81.3664 149.702 81.638C149.477 82.3334 148.907 82.6976 148.145 82.6976C147.384 82.6976 146.821 82.3334 146.596 81.638ZM148.967 81.4393C149.02 81.2803 149.046 81.0485 149.046 80.4326C149.046 79.8167 149.02 79.5849 148.967 79.4259C148.841 79.0683 148.583 78.8497 148.145 78.8497C147.708 78.8497 147.457 79.0683 147.331 79.4259C147.278 79.5849 147.251 79.81 147.251 80.4326C147.251 81.0551 147.278 81.2803 147.331 81.4393C147.457 81.7969 147.715 82.0155 148.145 82.0155C148.576 82.0155 148.841 81.7969 148.967 81.4393Z" fill="white"/>
<path d="M153.927 81.075V78.3C153.927 78.2603 153.954 78.2338 153.994 78.2338H154.629C154.669 78.2338 154.696 78.2603 154.696 78.3V81.0883C154.696 82.1082 154.007 82.7043 153.073 82.7043C152.139 82.7043 151.457 82.1082 151.457 81.0883V78.3C151.457 78.2603 151.483 78.2338 151.523 78.2338H152.159C152.199 78.2338 152.225 78.2603 152.225 78.3V81.075C152.225 81.6843 152.583 82.0221 153.08 82.0221C153.576 82.0221 153.941 81.6843 153.941 81.075H153.927Z" fill="white"/>
<path d="M156.51 82.6314C156.471 82.6314 156.444 82.6049 156.444 82.5652V78.2934C156.444 78.2537 156.471 78.2272 156.51 78.2272H158.159C159.014 78.2272 159.61 78.7769 159.61 79.5915C159.61 80.4061 159.014 80.9625 158.159 80.9625H157.245C157.245 80.9625 157.206 80.9757 157.206 81.0022V82.5586C157.206 82.5983 157.179 82.6248 157.14 82.6248H156.504L156.51 82.6314ZM158.848 79.5981C158.848 79.1941 158.57 78.916 158.12 78.916H157.252C157.252 78.916 157.212 78.9292 157.212 78.9557V80.2339C157.212 80.2339 157.226 80.2737 157.252 80.2737H158.12C158.57 80.2737 158.848 80.0021 158.848 79.5915V79.5981Z" fill="white"/>
<path d="M116.11 67.3854V66.8489L118.455 63.8752C118.68 63.5838 118.786 63.3255 118.786 63.001C118.786 62.3586 118.402 61.9347 117.753 61.9347C117.203 61.9347 116.72 62.246 116.72 63.0076H116.117C116.117 62.0738 116.759 61.3982 117.753 61.3982C118.746 61.3982 119.389 62.0208 119.389 63.001C119.389 63.4778 119.236 63.7825 118.912 64.1997L116.839 66.8489H119.389V67.3854H116.11Z" fill="white"/>
<path d="M122.66 67.4317C121.733 67.4317 121.038 66.7827 121.038 65.7959V63.0275C121.038 62.0407 121.74 61.3916 122.66 61.3916C123.581 61.3916 124.29 62.0407 124.29 63.0275V65.7959C124.29 66.7827 123.588 67.4317 122.66 67.4317ZM123.687 63.0606C123.687 62.4115 123.323 61.9281 122.66 61.9281C121.998 61.9281 121.634 62.4115 121.634 63.0606V65.7628C121.634 66.4118 121.998 66.8953 122.66 66.8953C123.323 66.8953 123.687 66.4118 123.687 65.7628V63.0606Z" fill="white"/>
<path d="M125.985 67.3854V66.8489L128.33 63.8752C128.555 63.5838 128.661 63.3255 128.661 63.001C128.661 62.3586 128.277 61.9347 127.628 61.9347C127.078 61.9347 126.594 62.246 126.594 63.0076H125.992C125.992 62.0738 126.634 61.3982 127.628 61.3982C128.621 61.3982 129.263 62.0208 129.263 63.001C129.263 63.4778 129.111 63.7825 128.787 64.1997L126.714 66.8489H129.263V67.3854H125.985Z" fill="white"/>
<path d="M133.734 67.0012C133.456 67.2794 133.072 67.445 132.548 67.445C132.025 67.445 131.615 67.2794 131.356 67.0211C131.098 66.7562 130.972 66.4118 130.939 65.9879H131.542C131.615 66.5774 131.926 66.9151 132.548 66.9151C132.84 66.9151 133.105 66.8158 133.284 66.637C133.595 66.3257 133.608 65.8555 133.608 65.425C133.608 64.6965 133.469 63.9812 132.608 63.9812C132.091 63.9812 131.74 64.213 131.621 64.564H131.078V61.4446H134.078V61.981H131.621V63.862C131.853 63.6037 132.224 63.4513 132.688 63.4513C133.131 63.4513 133.482 63.5904 133.714 63.8288C134.145 64.2593 134.204 64.862 134.204 65.4184C134.204 66.0078 134.151 66.5707 133.727 66.9946L133.734 67.0012Z" fill="white"/>
<path d="M169.001 65.8886C168.657 65.6369 167.961 65.2329 167.451 64.9945L167.955 64.2925C168.451 64.5243 169.16 64.8753 169.524 65.1203L169.001 65.8952V65.8886ZM169.955 67.3258C169.551 68.3656 169.028 69.5511 168.557 70.4849L167.723 69.9087C168.167 69.1405 168.769 67.8887 169.22 66.7562L169.955 67.3191V67.3258ZM169.591 63.246C169.24 62.9745 168.551 62.5639 168.041 62.2989L168.577 61.6168C169.074 61.8552 169.776 62.2393 170.14 62.5043L169.597 63.246H169.591ZM172.803 69.2464C172.16 69.7895 171.16 70.3326 170.346 70.6637C170.187 70.4849 169.856 70.1273 169.644 69.9816C170.471 69.7299 171.366 69.3193 171.915 68.902L172.803 69.2464ZM174.472 68.8159C175.154 69.1802 176.094 69.7233 176.584 70.0942L175.849 70.6704C175.386 70.2862 174.452 69.6968 173.723 69.2994L174.399 68.8159H170.511V65.2925H172.783V64.67H170.909V64.0739H170.167V62.3652H172.737C172.644 62.1135 172.518 61.8221 172.405 61.5903L173.352 61.4181C173.511 61.7029 173.677 62.0804 173.783 62.3652H176.419V64.0739H175.611V64.67H173.677V65.2925H176.035V68.8159H174.465H174.472ZM171.041 63.1401V63.9017H175.531V63.1401H171.041ZM171.352 66.7165H172.79V66.0144H171.352V66.7165ZM171.352 68.1073H172.79V67.392H171.352V68.1073ZM173.69 66.0144V66.7165H175.18V66.0144H173.69ZM175.18 67.392H173.69V68.1073H175.18V67.392Z" fill="white"/>
<path d="M186.598 66.7032C186.658 66.7032 186.718 66.69 186.751 66.6635C186.791 66.6436 186.824 66.584 186.83 66.4714C186.85 66.3588 186.863 66.0807 186.87 65.7495C187.009 65.8621 187.221 65.9681 187.413 66.0211C187.393 66.3853 187.36 66.796 187.314 66.9483C187.261 67.0874 187.175 67.2 187.055 67.2596C186.956 67.3324 186.784 67.3589 186.632 67.3589H186.228C186.036 67.3589 185.837 67.2993 185.704 67.1668C185.572 67.0344 185.526 66.8754 185.526 66.3191V64.5905H184.823C184.804 64.8819 184.764 65.2064 184.671 65.5177C184.996 65.7098 185.267 65.9085 185.466 66.0807L185.016 66.6635C184.863 66.5112 184.645 66.3522 184.413 66.1933C184.141 66.6767 183.737 67.147 183.082 67.551C183.002 67.4583 182.883 67.339 182.751 67.2198C181.207 67.339 179.631 67.4516 178.512 67.5046L178.459 66.9417C178.962 66.9218 179.578 66.8821 180.274 66.8489V66.4251H178.896V65.9217H180.274V65.4316H180.995C180.956 65.319 180.942 65.18 180.942 65.0078V64.8554H180.187C180.028 65.4184 179.624 65.7297 178.671 65.9151C178.611 65.776 178.459 65.5641 178.34 65.4647C179.075 65.3522 179.419 65.18 179.558 64.862H178.512V64.3521H180.274V64.0011H178.982V63.4977H180.274V63.2063H181.055V63.4977H182.333V64.0011H181.055V64.3521H182.804V64.862H181.532V65.021C181.532 65.1932 181.545 65.2528 181.684 65.2528H182.168C182.28 65.2528 182.492 65.2396 182.598 65.1998C182.618 65.3521 182.631 65.5111 182.651 65.6634C182.539 65.7032 182.34 65.7032 182.181 65.7032H181.539C181.3 65.7032 181.148 65.6502 181.055 65.5442V65.9283H182.472V66.4317H181.055V66.8158L182.784 66.7231V66.8953C183.254 66.5509 183.559 66.18 183.757 65.7893C183.466 65.6303 183.155 65.4647 182.863 65.3389L183.274 64.8356C183.492 64.9283 183.757 65.0342 183.989 65.1601C184.042 64.9813 184.068 64.7892 184.082 64.6038H183.022V63.9216H184.102V63.2792H184.823V63.9216H186.274V66.3588C186.274 66.5377 186.274 66.6436 186.307 66.6701C186.327 66.7099 186.367 66.7231 186.42 66.7231H186.598V66.7032ZM178.333 68.6371H187.261V69.2001H184.936C185.671 69.5312 186.466 70.0346 186.91 70.4055L186.267 70.836C186.095 70.6836 185.883 70.5247 185.631 70.3459C180.168 70.5843 179.572 70.5975 179.168 70.7101C179.115 70.5777 178.989 70.2399 178.896 70.0677C179.095 70.0346 179.32 69.9551 179.578 69.8359C179.777 69.7432 180.24 69.5114 180.737 69.2001H178.333V68.6371ZM180.678 62.7692H178.426V62.0937H180.678V61.4711H181.585V62.0937H182.671V62.7692H181.585V63.16H180.678V62.7692ZM186.082 67.6503V68.2133H179.578V67.6503H186.082ZM184.724 69.7962C184.492 69.6769 184.254 69.5577 184.029 69.4518L184.459 69.2001H181.996C181.585 69.4716 181.161 69.7101 180.737 69.9352L184.724 69.7962ZM183.989 62.7692H182.996V62.0937H183.989V61.4711H184.903V62.0937H187.221V62.7692H184.903V63.16H183.989V62.7692Z" fill="white"/>
<path d="M176.24 73.7699V82.5784H175.346V82.1082H168.882V82.6182H168.028V73.7699H176.24ZM175.346 81.3664V74.4918H168.882V81.3664H175.346ZM175.068 79.8167H173.697V80.6247C173.697 80.9558 173.617 81.0684 173.372 81.1412C173.121 81.2207 172.75 81.2207 172.167 81.2207C172.134 81.0485 172.048 80.8697 171.968 80.7174C172.313 80.7306 172.67 80.7306 172.776 80.7306C172.889 80.7174 172.915 80.6909 172.915 80.5982V79.8233H169.18V79.2802H172.915V78.949H173.703V79.2802H175.074V79.8233L175.068 79.8167ZM173.949 78.002C174.313 78.2735 174.704 78.6444 174.915 78.8894L174.412 79.2736C174.313 79.1411 174.167 79.002 174.021 78.8497C172.313 78.9027 170.591 78.9491 169.352 78.9822L169.312 78.4391C169.975 78.4391 170.803 78.4258 171.697 78.4192V78.0086H169.63V75.9886H171.697V75.6243H169.293V75.068H171.697V74.6574H172.472V75.068H174.929V75.6243H172.472V75.9886H174.617V78.0086H173.955L173.949 78.002ZM170.968 81.0485C170.809 80.777 170.471 80.3862 170.173 80.1147L170.769 79.81C171.074 80.075 171.432 80.4458 171.597 80.7041L170.975 81.0485H170.968ZM170.365 76.7701H171.697V76.3992H170.365V76.7701ZM171.697 77.5648V77.1807H170.365V77.5648H171.697ZM172.472 76.3992V76.7701H173.862V76.3992H172.472ZM173.862 77.5648V77.1807H172.472V77.5648H173.862ZM173.531 78.3927C173.472 78.3397 173.412 78.2934 173.352 78.2404L173.723 78.002H172.478V78.4126L173.538 78.3927H173.531Z" fill="white"/>
<path d="M181.572 74.1209C181.287 74.9554 180.936 76.0019 180.624 76.79C181.3 77.598 181.452 78.2802 181.452 78.8829C181.452 79.4855 181.333 79.8763 181.042 80.0882C180.889 80.181 180.711 80.2472 180.499 80.2803C180.32 80.3002 180.068 80.3002 179.836 80.2935C179.823 80.075 179.757 79.7107 179.624 79.4855C179.823 79.5054 179.995 79.5054 180.141 79.4988C180.26 79.4988 180.353 79.4657 180.446 79.4061C180.585 79.3067 180.638 79.0749 180.638 78.7703C180.638 78.2669 180.466 77.6245 179.81 76.8893C180.075 76.2072 180.333 75.3197 180.512 74.6442H179.432V82.6182H178.604V73.803H180.83L180.962 73.7699L181.578 74.1209H181.572ZM187.221 76.8496C186.837 77.1344 186.386 77.4324 185.949 77.6973C186.294 78.7835 186.956 79.969 187.592 80.6048C187.413 80.7373 187.128 81.0287 186.989 81.2274C186.347 80.5055 185.691 79.2537 185.3 78.0881L185.181 78.1477C185.684 79.777 185.466 81.4989 184.876 82.0354C184.572 82.3665 184.274 82.4659 183.81 82.4791C183.618 82.4791 183.287 82.4659 183.015 82.4593C182.996 82.2208 182.923 81.8632 182.784 81.6248C183.115 81.6579 183.439 81.6645 183.638 81.6645C183.883 81.6645 184.049 81.6248 184.201 81.4128C184.439 81.181 184.605 80.5055 184.572 79.6909C183.804 80.3267 182.75 80.936 181.856 81.3002C181.724 81.0817 181.512 80.7836 181.3 80.6247C182.419 80.2737 183.757 79.5187 184.472 78.7835C184.419 78.565 184.36 78.3331 184.28 78.108C183.664 78.5981 182.823 79.1345 182.174 79.459C182.062 79.267 181.843 78.969 181.671 78.7835C182.413 78.4987 183.439 77.9358 184.009 77.4457C183.876 77.2072 183.737 76.9821 183.578 76.7635C183.015 77.1874 182.399 77.5583 181.817 77.8298C181.704 77.6576 181.446 77.3132 181.26 77.1543C182.068 76.843 182.903 76.3661 183.525 75.8164H181.492V75.0018H183.294C183.055 74.6508 182.618 74.1872 182.227 73.8627L182.923 73.4189C183.386 73.7832 183.89 74.2865 184.121 74.6574L183.618 75.0018L184.645 75.015C185.009 74.5713 185.42 73.8891 185.651 73.3924L186.545 73.664C186.261 74.1342 185.923 74.6309 185.618 75.015H187.34V75.823H184.612C184.479 75.982 184.32 76.1277 184.161 76.2734C184.486 76.6377 184.724 77.0483 184.916 77.4722C185.519 77.1079 186.188 76.6178 186.625 76.2337L187.221 76.8562V76.8496Z" fill="white"/>
<path d="M120.077 26.8462C119.952 26.8462 119.872 26.7668 119.872 26.6409V15.6932C119.872 15.6137 119.832 15.5673 119.746 15.5673H116.216C116.09 15.5673 116.011 15.4879 116.011 15.362V13.0837C116.011 12.9579 116.09 12.8784 116.216 12.8784H126.548C126.674 12.8784 126.753 12.9579 126.753 13.0837V15.362C126.753 15.4879 126.674 15.5673 126.548 15.5673H123.011C122.932 15.5673 122.885 15.6071 122.885 15.6932V26.6409C122.885 26.7668 122.806 26.8462 122.68 26.8462H120.071H120.077Z" fill="white"/>
<path d="M130.926 13.0837C130.966 12.9579 131.052 12.8784 131.191 12.8784H133.78C133.926 12.8784 134.005 12.9579 134.045 13.0837L138.767 26.6409C138.807 26.7668 138.767 26.8462 138.622 26.8462H135.953C135.807 26.8462 135.727 26.7866 135.688 26.6409L134.886 24.197H129.999L129.217 26.6409C129.177 26.7866 129.091 26.8462 128.952 26.8462H126.263C126.118 26.8462 126.078 26.7668 126.118 26.6409L130.926 13.0837ZM134.072 21.6273L132.489 16.7396H132.429L130.846 21.6273H134.072Z" fill="white"/>
<path d="M140.436 13.0837C140.436 12.9579 140.516 12.8784 140.642 12.8784H143.251C143.377 12.8784 143.456 12.9579 143.456 13.0837V26.6409C143.456 26.7668 143.377 26.8462 143.251 26.8462H140.642C140.516 26.8462 140.436 26.7668 140.436 26.6409V13.0837Z" fill="white"/>
<path d="M156.437 26.8462C156.292 26.8462 156.212 26.7668 156.173 26.6409L153.749 17.9516H153.709L151.265 26.6409C151.225 26.7668 151.139 26.8462 151 26.8462H148.947C148.821 26.8462 148.742 26.7668 148.702 26.6409L145.086 13.0837C145.066 12.9579 145.106 12.8784 145.251 12.8784H147.9C148.046 12.8784 148.126 12.9579 148.146 13.0837L150.159 21.8591H150.199L152.583 13.0837C152.623 12.9579 152.709 12.8784 152.848 12.8784H154.636C154.762 12.8784 154.841 12.9579 154.881 13.0837L157.345 21.8591H157.385L159.318 13.0837C159.338 12.938 159.424 12.8784 159.563 12.8784H162.193C162.339 12.8784 162.378 12.9579 162.358 13.0837L158.762 26.6409C158.742 26.7668 158.636 26.8462 158.497 26.8462H156.444H156.437Z" fill="white"/>
<path d="M167.061 13.0837C167.1 12.9579 167.186 12.8784 167.325 12.8784H169.915C170.061 12.8784 170.14 12.9579 170.18 13.0837L174.902 26.6409C174.942 26.7668 174.902 26.8462 174.756 26.8462H172.087C171.942 26.8462 171.862 26.7866 171.822 26.6409L171.021 24.197H166.133L165.352 26.6409C165.312 26.7866 165.226 26.8462 165.087 26.8462H162.398C162.252 26.8462 162.213 26.7668 162.252 26.6409L167.061 13.0837ZM170.206 21.6273L168.624 16.7396H168.564L166.981 21.6273H170.206Z" fill="white"/>
<path d="M176.571 13.0837C176.571 12.9579 176.651 12.8784 176.776 12.8784H179.24C179.386 12.8784 179.505 12.938 179.591 13.0837L184.525 21.879H184.631V13.0837C184.631 12.9579 184.711 12.8784 184.837 12.8784H187.155C187.28 12.8784 187.36 12.9579 187.36 13.0837V26.6409C187.36 26.7668 187.28 26.8462 187.155 26.8462H184.711C184.545 26.8462 184.446 26.7866 184.36 26.6409L179.406 17.8655H179.306V26.6409C179.306 26.7668 179.227 26.8462 179.101 26.8462H176.776C176.651 26.8462 176.571 26.7668 176.571 26.6409V13.0837Z" fill="white"/>
<path d="M120.077 47.5629C119.952 47.5629 119.872 47.4834 119.872 47.3576V36.4098C119.872 36.3303 119.832 36.284 119.746 36.284H116.216C116.09 36.284 116.011 36.2045 116.011 36.0787V33.8004C116.011 33.6745 116.09 33.5951 116.216 33.5951H126.548C126.674 33.5951 126.753 33.6745 126.753 33.8004V36.0787C126.753 36.2045 126.674 36.284 126.548 36.284H123.011C122.932 36.284 122.885 36.3237 122.885 36.4098V47.3576C122.885 47.4834 122.806 47.5629 122.68 47.5629H120.071H120.077Z" fill="white"/>
<path d="M128.131 44.4037C127.82 43.4368 127.74 42.6553 127.74 40.5823C127.74 38.5093 127.82 37.7278 128.131 36.7608C128.846 34.5024 130.78 33.3699 133.224 33.3699C135.668 33.3699 137.602 34.5024 138.317 36.7608C138.628 37.7278 138.708 38.5093 138.708 40.5823C138.708 42.6553 138.628 43.4368 138.317 44.4037C137.595 46.6621 135.668 47.7947 133.224 47.7947C130.78 47.7947 128.846 46.6621 128.131 44.4037ZM135.423 43.5825C135.588 43.0924 135.648 42.4102 135.648 40.5823C135.648 38.7543 135.588 38.0788 135.423 37.5821C135.118 36.6151 134.376 36.0389 133.224 36.0389C132.072 36.0389 131.336 36.6151 131.025 37.5821C130.86 38.0722 130.8 38.7543 130.8 40.5823C130.8 42.4102 130.86 43.0857 131.025 43.5825C131.336 44.5494 132.072 45.1256 133.224 45.1256C134.376 45.1256 135.111 44.5494 135.423 43.5825Z" fill="white"/>
<path d="M141.258 47.5629C141.132 47.5629 141.052 47.4834 141.052 47.3576V33.8004C141.052 33.6745 141.132 33.5951 141.258 33.5951H146.682C149.722 33.5951 151.55 35.423 151.55 38.092C151.55 40.7611 149.702 42.5692 146.682 42.5692H144.198C144.119 42.5692 144.072 42.6089 144.072 42.695V47.3576C144.072 47.4834 143.993 47.5629 143.867 47.5629H141.258ZM148.53 38.092C148.53 36.9595 147.768 36.2045 146.496 36.2045H144.198C144.119 36.2045 144.072 36.2442 144.072 36.3303V39.8405C144.072 39.92 144.112 39.9663 144.198 39.9663H146.496C147.768 39.9663 148.53 39.2246 148.53 38.0987V38.092Z" fill="white"/>
</g>
<defs>
<clipPath id="clip0_2073_182">
<rect width="200" height="95.0328" fill="white" transform="translate(-0.0100098 0.228638)"/>
</clipPath>
</defs>
</svg>
