<svg width="480" height="252" viewBox="0 0 480 252" fill="none" xmlns="http://www.w3.org/2000/svg">
<g clip-path="url(#clip0_2002_292)">
<path d="M57.6355 178.166C57.9136 177.084 57.1719 175.972 56.6775 175.075C56.492 174.766 53.1235 170.378 48.9206 166.453C44.6867 162.528 39.4949 159.345 38.3205 160.272C37.2389 161.169 43.1415 165.742 47.2518 171.491C51.053 176.806 51.7637 178.815 52.2582 179.711C52.9072 180.885 53.8034 181.658 55.225 180.793C55.225 180.793 57.3574 179.247 57.6355 178.166ZM4.72795 179.618C7.94196 179.618 37.4861 177.949 48.3643 177.27C48.1171 176.868 47.8389 176.404 47.499 175.91L5.9023 175.57C12.6394 169.42 22.6522 158.635 25.31 155.575C25.7117 155.111 25.959 154.741 25.9899 154.679C26.1135 154.246 25.4645 153.783 24.8155 153.752H19.3455C18.6965 153.752 18.4802 153.937 17.9548 154.524C17.6458 154.895 6.02592 167.473 1.23581 174.89C0.370495 176.219 -0.402103 177.455 0.308687 178.598C1.174 180.02 3.02823 179.587 4.75885 179.587L4.72795 179.618ZM50.0949 184.965H45.243C44.6558 184.965 44.1923 185.428 44.1923 186.015V206.999C44.1923 207.586 44.6558 208.05 45.243 208.05H50.0949C50.6512 208.05 51.1457 207.586 51.1457 206.999V186.015C51.1457 185.459 50.6821 184.965 50.0949 184.965ZM41.9363 206.319H11.5886V186.695H41.9054V186.015C41.9054 185.645 41.9672 185.305 42.0908 184.996H5.71688C5.1297 184.996 4.66614 185.459 4.66614 186.046V207.03C4.66614 207.617 5.1297 208.081 5.71688 208.081H42.0908C41.9672 207.741 41.9054 207.401 41.9054 207.061V206.381L41.9363 206.319ZM472.428 209.688H476.724C477.311 209.688 477.775 209.224 477.775 208.637V156.286C477.775 155.699 477.311 155.235 476.724 155.235H472.428C471.841 155.235 471.377 155.699 471.377 156.286V208.637C471.377 209.224 471.841 209.688 472.428 209.688ZM469.307 209.688C469.183 209.348 469.121 209.008 469.121 208.668V207.988H426.876V156.935H469.121V156.255C469.121 155.884 469.183 155.544 469.307 155.235H422.456H421.56C420.973 155.235 420.51 155.699 420.51 156.286V208.637C420.51 209.224 420.973 209.688 421.56 209.688H469.307ZM460.623 190.095C460.623 189.786 460.376 189.538 460.067 189.538H455.833C455.524 189.538 455.276 189.786 455.276 190.095V205.114C455.276 205.423 455.771 206.69 457.965 206.69C460.159 206.69 460.623 205.423 460.623 205.114V194.39H469.369C469.369 194.39 469.616 194.267 469.616 194.143V192.938C469.616 192.938 469.523 192.691 469.369 192.691H460.623V190.095ZM441.462 195.874H438.063C437.476 195.966 437.043 196.43 437.074 196.986C437.074 197.264 438.99 200.169 441.648 202.209C444.676 204.527 448.508 205.948 448.818 205.269C449.065 204.712 446.871 202.487 445.202 200.231C444.12 198.779 443.348 196.925 443.255 196.801C442.791 196.028 442.05 195.812 441.462 195.874ZM453.02 192.691H429.812C429.812 192.691 429.564 192.783 429.564 192.938V194.143C429.564 194.143 429.657 194.39 429.812 194.39H453.02V192.691ZM461.241 167.72C460.932 167.72 460.685 167.968 460.685 168.277V181.689C460.685 181.998 460.932 182.245 461.241 182.245H465.475C465.784 182.245 466.031 181.998 466.031 181.689V168.277C466.031 167.968 465.784 167.72 465.475 167.72H461.241ZM465.598 189.755C466.093 190.311 466.587 190.527 467.174 190.249C467.174 190.249 469.183 189.384 468.874 188.426C468.72 187.962 468.102 186.695 465.753 185.057C463.157 183.265 460.067 182.987 459.912 183.605C459.819 183.976 460.808 184.841 462.013 185.892L451.97 186.077V182.214H458.429C458.398 182.029 458.367 181.843 458.367 181.658V180.515H451.97V175.941H458.367V174.241H451.97V169.389H458.367V168.246C458.367 168.06 458.367 167.875 458.429 167.689H451.97V164.568H468.565C468.565 164.568 468.812 164.444 468.812 164.321V163.116C468.812 163.116 468.689 162.868 468.565 162.868H451.97V159.716C451.97 159.407 451.723 159.16 451.413 159.16H447.18C446.871 159.16 446.623 159.407 446.623 159.716V162.868H429.75C429.75 162.868 429.503 162.992 429.503 163.116V164.321C429.503 164.321 429.626 164.568 429.75 164.568H446.623V186.17L431.604 186.448C431.604 186.448 431.357 186.572 431.357 186.695V187.901C431.357 187.901 431.48 188.148 431.635 188.148L463.775 187.592C464.702 188.55 465.506 189.693 465.567 189.755H465.598ZM444.367 169.389V167.689H433.18C432.871 167.689 432.624 167.937 432.624 168.246V181.658C432.624 181.967 432.871 182.214 433.18 182.214H444.367V180.515H437.97V175.941H444.367V174.241H437.97V169.389H444.367ZM203.811 171.861C203.502 171.861 203.255 172.109 203.255 172.418V192.134C203.255 192.443 203.502 192.691 203.811 192.691H208.045C208.354 192.691 208.601 192.443 208.601 192.134V172.418C208.601 172.109 208.354 171.861 208.045 171.861H203.811ZM223.281 207.123C223.868 207.123 224.331 206.659 224.331 206.072V158.789C224.331 158.202 223.868 157.738 223.281 157.738H218.49C217.903 157.738 217.44 158.202 217.44 158.789V206.072C217.44 206.659 217.903 207.123 218.49 207.123H223.281ZM215.184 158.82C215.184 158.449 215.246 158.109 215.369 157.8H168.457C167.87 157.8 167.406 158.264 167.406 158.851V206.134C167.406 206.721 167.87 207.185 168.457 207.185H215.369C215.276 206.845 215.184 206.505 215.184 206.165V205.485H174.267V159.531H215.184V158.851V158.82ZM200.999 173.592V172.449C200.999 172.263 200.999 172.078 201.061 171.892H183.785C183.476 171.892 183.229 172.14 183.229 172.449V192.165C183.229 192.474 183.476 192.722 183.785 192.722H201.061C201.03 192.536 200.999 192.351 200.999 192.165V191.022H188.575V173.592H200.999ZM138.697 205.454C139.902 204.496 140.118 204.156 140.736 203.507C141.354 202.858 141.354 201.622 140.025 201.127C139.315 200.849 131.836 198.099 125.377 194.607C120.803 192.134 117.898 189.909 115.828 188.859V188.797H132.917C133.505 188.797 133.968 188.333 133.968 187.746V166.577C133.968 165.99 133.505 165.526 132.917 165.526H113.572V159.778H139.036C139.253 159.778 139.407 159.623 139.407 159.407V158.449C139.407 158.233 139.253 158.078 139.036 158.078H113.572V151.496C113.572 151.032 113.108 150.661 112.552 150.661H108.534C107.978 150.661 107.514 151.032 107.514 151.496V209.286C107.514 209.811 107.762 211.295 110.543 211.295C113.324 211.295 113.572 209.811 113.572 209.286V190.96C114.159 191.547 114.962 192.258 115.859 193C118.671 195.348 122.719 198.346 126.984 201.097C133.288 205.145 134.463 205.392 134.864 205.578C135.266 205.763 137.491 206.35 138.666 205.392L138.697 205.454ZM113.572 167.288H127.108V175.941H113.572V167.288ZM113.572 187.128V177.64H127.108V187.128H113.572ZM80.2881 159.84H105.228V158.14H80.2881C80.0717 158.14 79.9172 158.295 79.9172 158.511V159.469C79.9172 159.685 80.0717 159.84 80.2881 159.84ZM105.228 187.128H92.3715V177.64H105.228V175.941H92.3715V167.288H105.228V165.588H86.5616C86.0053 165.588 85.5108 166.051 85.5108 166.639V187.808C85.5108 188.395 85.9744 188.859 86.5616 188.859H101.674C100.221 190.466 96.3581 194.421 91.3517 197.821C83.4094 203.229 79.4537 203.631 79.9481 205.361C80.2881 206.505 88.6012 203.538 97.0689 198.686C100.252 196.863 103.064 194.823 105.197 193.062V187.159L105.228 187.128ZM275.261 178.382C275.786 178.289 283.265 176.466 287.53 175.415C287.561 175.446 287.623 175.508 287.654 175.539C288.735 176.559 289.724 177.98 289.786 178.073C290.28 178.629 290.775 178.846 291.362 178.598C291.362 178.598 293.371 177.733 293.062 176.775C292.907 176.312 292.289 175.045 289.94 173.407C287.344 171.614 284.254 171.336 284.1 171.954C284.007 172.294 284.965 173.128 286.108 174.148L276.806 175.972V170.502H285.243C285.212 170.316 285.181 170.131 285.181 169.945V168.802H276.806V164.537H285.181V162.837H276.806V158.387H285.181V157.244C285.181 157.058 285.181 156.873 285.243 156.688H284.223C284.038 156.348 283.821 155.977 283.636 155.699C282.369 153.628 282.091 153.226 281.936 153.072C281.535 152.67 281.102 152.546 280.422 152.701C279.618 152.886 278.599 153.103 278.259 153.535C277.919 153.937 277.826 154.432 278.259 154.926C278.506 155.204 279.34 156.039 280.02 156.718H272.758C272.758 156.718 272.665 156.811 272.634 156.842C272.511 156.935 272.387 157.089 272.387 157.275V177.208C272.387 177.208 272.325 177.949 272.851 178.382C273.314 178.753 274.427 178.537 275.199 178.382H275.261ZM288.055 170.533H291.207C291.517 170.533 291.764 170.285 291.764 169.976V157.275C291.764 156.966 291.517 156.718 291.207 156.718H288.055C287.746 156.718 287.499 156.966 287.499 157.275V169.976C287.499 170.285 287.746 170.533 288.055 170.533ZM293.433 208.699V208.019H268.4V202.982H293.433V201.282H268.4V195.905H293.433V195.225C293.433 194.854 293.494 194.514 293.618 194.205H262.59C262.034 194.205 261.571 194.669 261.571 195.256V208.699C261.571 209.286 262.034 209.75 262.59 209.75H293.618C293.494 209.41 293.433 209.07 293.433 208.73V208.699ZM260.025 163.95C258.14 165.959 255.606 168.277 255.112 168.74C254.123 169.667 253.319 170.409 253.845 171.398C254.524 172.727 256.286 172.016 257.491 171.769C258.604 171.552 262.405 170.656 265.001 170.007C264.105 171.336 263.085 172.696 262.003 173.777C257.12 178.753 252.856 179.742 253.35 180.576C253.937 181.658 260.458 179.031 264.877 175.415C269.606 171.521 272.14 165.866 272.14 165.866C272.14 165.341 271.707 164.877 271.151 164.877L268.957 164.723C268.4 164.723 268.122 164.877 267.69 165.65C267.628 165.773 266.979 166.948 266.052 168.431L258.418 169.296C259.5 168.617 261.107 167.38 263.023 165.959C267.937 162.312 269.327 160.211 269.451 159.685C269.575 159.129 269.111 158.48 268.555 158.387L266.175 157.893C265.619 157.8 265.434 157.955 264.816 158.635C264.197 159.314 262.374 161.509 260.056 163.95H260.025ZM259.778 160.149C263.579 156.935 264.785 155.05 264.939 154.648C265.094 154.246 264.692 153.783 264.228 153.721L261.911 153.041C261.447 152.979 261.2 153.103 260.767 153.69C260.705 153.783 259.098 156.44 257.337 158.573C254.864 161.54 251.867 164.383 252.021 164.815C252.207 165.31 256.441 162.992 259.809 160.18L259.778 160.149ZM291.918 189.044C292.567 188.611 293.216 188.117 293.803 187.561C295.349 186.17 296.492 184.378 296.956 183.512H305.207C305.207 183.512 305.454 183.389 305.454 183.265V182.06C305.454 182.06 305.331 181.812 305.207 181.812H285.583C285.583 181.812 285.552 181.627 285.459 181.503C284.13 179.495 283.914 179.031 283.76 178.846C283.358 178.444 282.925 178.32 282.245 178.475C281.442 178.66 280.422 178.877 280.082 179.309C279.742 179.711 279.649 180.205 280.082 180.7C280.267 180.916 280.638 181.349 281.009 181.782H258.851C258.851 181.782 258.604 181.905 258.604 182.029V183.234C258.604 183.234 258.727 183.481 258.851 183.481H267.102C267.566 184.378 268.74 186.139 270.255 187.53C270.842 188.086 271.491 188.58 272.14 189.013H252.516C252.516 189.013 252.268 189.137 252.268 189.26V190.466C252.268 190.466 252.392 190.713 252.516 190.713H311.511C311.511 190.713 311.759 190.589 311.759 190.466V189.26C311.759 189.26 311.635 189.013 311.511 189.013H291.887L291.918 189.044ZM288.828 189.044H275.292C274.767 188.241 274.025 187.221 273.376 186.201C272.758 185.181 272.325 184.007 272.14 183.512H292.011C291.826 184.007 291.393 185.212 290.775 186.201C290.126 187.221 289.384 188.241 288.859 189.044H288.828ZM301.529 209.719C302.117 209.719 302.58 209.255 302.58 208.668V195.225C302.58 194.638 302.117 194.174 301.529 194.174H296.739C296.152 194.174 295.689 194.638 295.689 195.225V208.668C295.689 209.255 296.152 209.719 296.739 209.719H301.529ZM297.079 180.329C298.903 180.329 299.212 179.34 299.212 179.031V174.148C299.861 174.859 300.633 175.601 301.56 176.064C309.008 179.804 312.933 172.881 310.893 168.215C309.935 166.021 307.278 164.784 305.887 164.414C307.71 162.343 309.966 159.005 310.955 157.646C311.295 157.182 311.419 156.966 311.45 156.595C311.45 156.224 310.955 155.977 310.553 155.853C310.121 155.73 308.946 155.575 308.236 155.575H295.534C295.225 155.575 294.978 155.822 294.978 156.131V179.031C294.978 179.34 295.287 180.329 297.11 180.329H297.079ZM299.212 157.306H306.196C305.3 159.623 303.569 164.692 303.878 165.032C304.187 165.372 305.98 166.391 306.845 167.628C308.112 169.42 308.359 173.345 305.578 174.241C303.044 175.045 300.695 173.716 299.242 172.51V157.306H299.212ZM368.807 189.971V186.479C368.807 185.892 368.344 185.428 367.757 185.428H363.615C363.028 185.428 362.565 185.892 362.565 186.479V208.266C362.565 208.853 362.936 210.646 365.686 210.646C368.436 210.646 368.807 208.853 368.807 208.266V191.733H394.921C394.921 191.733 395.168 191.609 395.168 191.485V190.218C395.168 190.218 395.045 189.971 394.921 189.971H368.807ZM336.729 190.218V191.485C336.729 191.485 336.853 191.733 336.976 191.733H360.278V189.971H336.976C336.976 189.971 336.729 190.095 336.729 190.218ZM357.589 184.038H368.405C368.282 183.698 368.22 183.358 368.22 183.018V182.307H361.143V172.881H368.22V171.12H361.143V161.138H368.22V160.427C368.22 160.056 368.282 159.716 368.405 159.407H366.304C366.953 158.573 368.096 157.12 368.405 156.688C368.838 156.07 368.684 155.451 368.313 154.895C367.911 154.308 366.798 153.937 365.933 153.628C365.191 153.35 364.728 153.474 364.357 153.968C364.203 154.153 363.924 154.679 362.781 157.244C362.472 157.924 362.07 158.974 361.885 159.407H357.589C357.002 159.407 356.538 159.871 356.538 160.458V183.049C356.538 183.636 357.002 184.099 357.589 184.099V184.038ZM371.527 184.038H374.061C374.648 184.038 375.112 183.574 375.112 182.987V160.396C375.112 159.84 374.648 159.345 374.061 159.345H371.527C370.94 159.345 370.476 159.809 370.476 160.396V182.987C370.476 183.574 370.94 184.038 371.527 184.038ZM392.665 202.333C391.46 201.406 388.462 199.428 383.332 197.172C378.202 194.885 373.072 193.649 372.299 194.885C371.589 196.059 376.719 198.037 382.59 201.684C388.122 205.269 389.698 207.154 390.904 208.235C391.923 209.162 393.036 209.472 394.056 208.235C394.056 208.235 395.014 206.412 394.983 205.392C394.952 204.372 393.87 203.26 392.634 202.333H392.665ZM360.154 195.472C360.278 194.947 359.783 194.298 359.227 194.267C358.671 194.267 356.446 194.267 355.426 194.267C354.437 194.267 354.097 194.576 353.479 195.194C353.232 195.441 350.296 199.057 345.722 201.776C340.376 204.96 335.462 206.072 335.771 207.03C336.204 208.328 342.539 206.999 349.461 203.692C356.168 200.478 360 196.028 360.123 195.503L360.154 195.472ZM338.212 185.119C338.8 184.934 345.938 182.74 350.049 181.473C350.141 182.74 350.172 183.574 350.172 183.698C350.234 184.47 350.512 184.934 351.192 185.088C351.192 185.088 354.004 185.645 354.313 184.687C354.468 184.223 354.437 182.832 353.757 179.989C352.954 176.621 351.285 173.747 349.77 175.199C349.307 175.663 349.554 177.239 349.801 179.34L340.221 181.442C342.044 179.742 344.733 177.424 347.144 174.921C353.232 168.678 355.148 165.001 355.395 164.321C355.642 163.641 355.024 162.745 354.282 162.621L351.47 162.065C350.728 161.941 350.358 162.219 349.678 163.332C349.554 163.517 346.155 169.358 343.157 173.438C340.19 177.455 337.532 180.607 336.853 181.318C336.204 182.029 334.813 183.358 335.091 183.945C335.4 184.532 336.667 185.552 338.151 185.119H338.212ZM384.197 164.877C388.555 159.623 389.822 156.718 389.946 156.131C390.069 155.544 389.513 154.926 388.926 154.926L385.959 154.339C385.372 154.339 385.063 154.524 384.599 155.451C384.537 155.606 382.869 159.685 380.922 163.023C378.202 167.689 375.915 170.842 376.162 171.398C376.471 172.078 380.334 169.513 384.197 164.877ZM343.837 164.877C348.194 159.623 349.461 156.718 349.585 156.131C349.709 155.544 349.152 154.926 348.565 154.926L345.598 154.339C345.011 154.339 344.702 154.524 344.27 155.451C344.208 155.606 342.539 159.685 340.592 163.023C337.872 167.689 335.586 170.842 335.833 171.398C336.142 172.078 340.005 169.513 343.868 164.877H343.837ZM390.1 176.033C389.698 176.559 390.193 178.197 390.78 180.329L380.798 181.442C382.621 179.742 385.31 177.424 387.72 174.921C393.809 168.678 394.828 166.113 395.076 165.433C395.323 164.754 394.705 163.857 393.963 163.734L391.151 163.177C390.409 163.054 390.038 163.332 389.358 164.444C389.235 164.63 386.732 169.358 383.734 173.438C380.767 177.455 378.109 180.607 377.429 181.318C376.78 182.029 375.39 183.358 375.668 183.945C375.977 184.532 377.244 185.552 378.727 185.119C379.376 184.934 387.226 182.925 391.151 181.905C391.491 183.327 391.645 184.285 391.676 184.378C391.862 185.119 392.202 185.552 392.881 185.614C392.881 185.614 395.755 185.768 395.941 184.748C396.034 184.254 395.817 182.894 394.736 180.175C393.469 176.93 391.398 174.334 390.131 176.003L390.1 176.033ZM0.95767 235.122H7.23117V251.254H9.67258V235.122H15.977V233.113H0.95767V235.122ZM26.8552 233.113L19.9945 251.285H22.5595L24.661 245.475H31.8925L34.0867 251.285H36.7444L29.8219 233.113H26.8243H26.8552ZM25.2173 243.589L27.2878 238.119C27.6896 237.038 27.9677 236.08 28.2458 235.122H28.3077C28.5858 236.049 28.8639 237.007 29.2966 238.15L31.3671 243.589H25.1864H25.2173ZM45.3357 251.285H47.7771V233.113H45.3357V251.285ZM56.2757 235.153H62.5492V251.285H64.9906V235.153H71.295V233.144H56.2757V235.153ZM91.568 243.435C91.568 247.7 89.5902 249.678 86.5307 249.678C83.7184 249.678 81.6788 247.761 81.6788 243.435V233.144H79.2373V243.373C79.2373 249.399 82.3895 251.624 86.4071 251.624C90.7645 251.624 94.0403 249.183 94.0403 243.311V233.144H91.568V243.435ZM117.126 241.117C117.126 243.806 117.126 246 117.373 248.287H117.311C116.384 246.494 115.271 244.733 113.757 242.539L107.113 233.144H104.331V251.315H106.649V243.064C106.649 240.345 106.649 238.212 106.495 235.956H106.587C107.576 237.78 108.936 239.881 110.389 241.982L116.94 251.346H119.474V233.175H117.156V241.148L117.126 241.117ZM138.511 243.682H142.621V248.905C141.941 249.245 140.705 249.492 138.882 249.492C133.937 249.492 130.971 246.464 130.971 242.199C130.971 237.934 133.999 234.967 139.129 234.967C141.262 234.967 142.652 235.338 143.796 235.863L144.414 233.917C143.548 233.515 141.632 232.989 139.222 232.989C132.176 232.989 128.406 237.47 128.406 242.353C128.406 245.011 129.394 247.391 131.032 248.936C132.979 250.759 135.513 251.563 138.666 251.563C141.54 251.563 143.888 250.852 145.032 250.45V241.828H138.48V243.744L138.511 243.682ZM177.172 242.817H185.052V240.808H177.172V235.122H185.516V233.113H174.731V251.285H185.949V249.276H177.172V242.817ZM204.429 234.813C206.129 234.813 207.674 235.184 208.694 235.678L209.312 233.731C208.601 233.391 206.932 232.804 204.306 232.804C197.754 232.804 193.798 237.131 193.798 242.353C193.798 248.256 198.063 251.624 203.718 251.624C206.283 251.624 208.292 251.099 209.25 250.636L208.725 248.72C207.612 249.245 205.882 249.585 204.213 249.585C199.083 249.585 196.363 246.402 196.363 242.322C196.363 237.81 199.361 234.813 204.398 234.813H204.429ZM230.698 240.684H220.685V233.144H218.243V251.315H220.685V242.786H230.698V251.315H233.139V233.144H230.698V240.684ZM250.94 232.804C245.531 232.804 241.514 236.76 241.514 242.415C241.514 247.7 245.315 251.594 250.723 251.594C256.132 251.594 260.211 248.04 260.211 241.982C260.211 236.729 256.533 232.773 250.971 232.773L250.94 232.804ZM250.816 249.678C246.644 249.678 244.079 246.278 244.079 242.353C244.079 238.429 246.428 234.751 250.847 234.751C255.266 234.751 257.584 238.429 257.584 242.137C257.584 246.464 254.988 249.678 250.816 249.678ZM293.834 232.804C288.426 232.804 284.409 236.76 284.409 242.415C284.409 247.7 288.21 251.594 293.618 251.594C299.026 251.594 303.105 248.04 303.105 241.982C303.105 236.729 299.428 232.773 293.834 232.773V232.804ZM293.711 249.678C289.539 249.678 286.974 246.278 286.974 242.353C286.974 238.429 289.322 234.751 293.772 234.751C298.223 234.751 300.51 238.429 300.51 242.137C300.51 246.464 297.914 249.678 293.742 249.678H293.711ZM320.628 242.631V242.57C322.544 241.982 324.213 240.375 324.213 237.965C324.213 236.543 323.626 235.307 322.729 234.535C321.524 233.484 319.794 232.959 317.074 232.959C315.282 232.959 313.366 233.144 312.068 233.36V251.285H314.509V243.435H317.198C319.454 243.528 320.504 244.517 321.061 246.989C321.617 249.276 322.019 250.759 322.328 251.285H324.862C324.46 250.512 323.997 248.72 323.348 246.154C322.884 244.424 322.019 243.126 320.597 242.601L320.628 242.631ZM317.414 241.612H314.509V235.091C314.942 234.967 315.869 234.844 317.229 234.844C319.794 234.844 321.771 235.771 321.771 238.212C321.771 240.252 320.103 241.612 317.414 241.612ZM343.404 234.813C345.104 234.813 346.649 235.184 347.669 235.678L348.287 233.731C347.576 233.391 345.907 232.804 343.281 232.804C336.729 232.804 332.773 237.131 332.773 242.353C332.773 248.256 337.038 251.624 342.693 251.624C345.258 251.624 347.267 251.099 348.225 250.636L347.7 248.72C346.556 249.245 344.857 249.585 343.188 249.585C338.058 249.585 335.338 246.402 335.338 242.322C335.338 237.81 338.336 234.813 343.373 234.813H343.404ZM369.673 240.684H359.66V233.144H357.218V251.315H359.66V242.786H369.673V251.315H372.114V233.144H369.673V240.684ZM384.877 242.817H392.758V240.808H384.877V235.122H393.221V233.113H382.436V251.285H393.654V249.276H384.877V242.817ZM408.735 240.932C405.954 240.036 404.81 239.17 404.81 237.532C404.81 236.296 405.799 234.782 408.519 234.782C410.373 234.782 411.764 235.369 412.382 235.74L413.093 233.762C412.196 233.268 410.682 232.804 408.581 232.804C404.841 232.804 402.338 234.936 402.338 237.78C402.338 240.375 404.13 241.89 407.592 242.971C410.373 243.837 411.362 244.826 411.362 246.494C411.362 248.349 409.848 249.585 407.283 249.585C405.428 249.585 403.76 248.998 402.554 248.256L401.874 250.265C402.987 251.006 405.119 251.594 407.035 251.594C411.826 251.594 413.803 248.967 413.803 246.309C413.803 243.435 412.042 242.013 408.673 240.901L408.735 240.932ZM420.911 235.153H427.185V251.285H429.626V235.153H435.931V233.144H420.911V235.153ZM452.433 242.631V242.57C454.349 241.982 456.018 240.375 456.018 237.965C456.018 236.543 455.431 235.307 454.535 234.535C453.329 233.484 451.599 232.959 448.879 232.959C447.087 232.959 445.171 233.144 443.873 233.36V251.285H446.314V243.435H449.003C451.259 243.528 452.31 244.517 452.866 246.989C453.422 249.276 453.824 250.759 454.133 251.285H456.667C456.265 250.512 455.802 248.72 455.153 246.154C454.689 244.424 453.824 243.126 452.402 242.601L452.433 242.631ZM449.219 241.612H446.314V235.091C446.747 234.967 447.674 234.844 449.034 234.844C451.599 234.844 453.577 235.771 453.577 238.212C453.577 240.252 451.908 241.612 449.219 241.612ZM473.046 233.144H470.049L463.188 251.315H465.753L467.854 245.505H475.086L477.28 251.315H479.938L473.015 233.144H473.046ZM468.411 243.62L470.481 238.15C470.883 237.069 471.161 236.111 471.439 235.153H471.501C471.779 236.08 472.057 237.038 472.49 238.181L474.56 243.62H468.38H468.411Z" fill="white"/>
<path d="M312.005 44.1972H330.764V37.9546H318.247C302.672 37.9546 291.485 27.231 280.699 20.8647C278.845 19.814 276.713 19.1959 274.426 19.1959C272.139 19.1959 270.006 19.814 268.183 20.8647C257.429 27.231 246.21 37.9546 230.635 37.9546H168.085H161.843V81.7455H168.085H199.36C214.936 81.7455 226.123 71.0218 236.908 64.6556C238.763 63.574 240.895 62.9868 243.151 62.9868C245.407 62.9868 247.57 63.6049 249.424 64.6556C260.179 71.0218 271.397 81.7455 286.973 81.7455H293.215H330.764V75.5029H293.215C277.64 75.5029 266.452 64.7792 255.667 58.413C253.813 57.3314 251.68 56.7442 249.394 56.7442C247.107 56.7442 244.974 57.3623 243.151 58.413C232.396 64.7792 221.178 75.5029 205.603 75.5029H168.054V62.9868H211.845C227.421 62.9868 238.608 52.2631 249.394 45.8969C251.248 44.8153 253.38 44.2281 255.636 44.2281C257.892 44.2281 260.055 44.8462 261.91 45.8969C272.664 52.2631 283.882 62.9868 299.458 62.9868H330.733V56.7442H305.7C290.125 56.7442 278.938 46.0205 268.152 39.6543C266.298 38.6036 264.166 37.9855 261.879 37.9855C259.592 37.9855 257.459 38.6036 255.636 39.6543C244.882 46.0205 233.663 56.7442 218.088 56.7442H168.023V44.2281H224.33C239.906 44.2281 251.093 33.5045 261.879 27.1382C263.733 26.0566 265.865 25.4694 268.121 25.4694C270.377 25.4694 272.541 26.0875 274.395 27.1382C285.149 33.5045 296.368 44.2281 311.943 44.2281L312.005 44.1972Z" fill="white"/>
<path d="M280.7 94.2307C265.124 94.2307 253.937 83.507 243.151 77.1408C241.297 76.0901 239.165 75.472 236.878 75.472C234.591 75.472 232.458 76.0901 230.635 77.1408C219.881 83.507 208.662 94.2307 193.087 94.2307H149.296V25.4385H236.878C252.453 25.4385 263.641 14.7149 274.426 8.34867C276.28 7.26703 278.413 6.67986 280.669 6.67986C282.925 6.67986 285.088 7.29794 286.942 8.34867C297.697 14.7149 308.915 25.4385 324.49 25.4385H330.733V19.196C315.157 19.196 303.97 8.47229 293.185 2.10608C291.331 1.05534 289.198 0.437263 286.911 0.437263C284.624 0.437263 282.492 1.05534 280.669 2.10608C269.914 8.47229 258.696 19.196 243.12 19.196H149.265H143.022V100.504H149.265H186.813C202.389 100.504 213.576 89.7805 224.362 83.4143C226.216 82.3327 228.348 81.7455 230.604 81.7455C232.86 81.7455 235.024 82.3636 236.878 83.4143C247.632 89.7805 258.85 100.504 274.426 100.504H280.669H330.733V94.2616H280.669L280.7 94.2307Z" fill="white"/>
</g>
<defs>
<clipPath id="clip0_2002_292">
<rect width="480" height="251.187" fill="white" transform="translate(-0.00012207 0.406372)"/>
</clipPath>
</defs>
</svg>
