<svg width="200" height="106" viewBox="0 0 200 106" fill="none" xmlns="http://www.w3.org/2000/svg">
<g clip-path="url(#clip0_2009_2661)">
<path d="M24.0147 74.7805C24.1306 74.3298 23.8216 73.8663 23.6156 73.4929C23.5383 73.3641 22.1348 71.5356 20.3835 69.9003C18.6194 68.2649 16.4562 66.9386 15.9668 67.3249C15.5162 67.6984 17.9756 69.6041 19.6882 71.9992C21.272 74.214 21.5682 75.0509 21.7742 75.4244C22.0446 75.9137 22.418 76.2356 23.0104 75.875C23.0104 75.875 23.8989 75.2312 24.0147 74.7805ZM1.96994 75.3857C3.30911 75.3857 15.6192 74.6904 20.1518 74.4071C20.0487 74.2397 19.9329 74.0466 19.7912 73.8405L2.45925 73.6989C5.26636 71.1364 9.43839 66.6425 10.5458 65.3677C10.7132 65.1745 10.8162 65.02 10.8291 64.9943C10.8806 64.814 10.6102 64.6209 10.3398 64.608H8.06059C7.79018 64.608 7.70004 64.6852 7.48114 64.9299C7.35237 65.0844 2.51076 70.3252 0.514878 73.4156C0.154332 73.9693 -0.167584 74.4844 0.128579 74.9608C0.489125 75.5531 1.26172 75.3729 1.98282 75.3729L1.96994 75.3857ZM20.8728 77.6134H18.8512C18.6066 77.6134 18.4134 77.8065 18.4134 78.0512V86.7944C18.4134 87.0391 18.6066 87.2322 18.8512 87.2322H20.8728C21.1046 87.2322 21.3106 87.0391 21.3106 86.7944V78.0512C21.3106 77.8194 21.1175 77.6134 20.8728 77.6134ZM17.4734 86.5111H4.82855V78.3345H17.4605V78.0512C17.4605 77.8967 17.4863 77.755 17.5378 77.6263H2.38199C2.13734 77.6263 1.94419 77.8194 1.94419 78.0641V86.8073C1.94419 87.052 2.13734 87.2451 2.38199 87.2451H17.5378C17.4863 87.1035 17.4605 86.9618 17.4605 86.8202V86.5369L17.4734 86.5111ZM196.845 87.9147H198.635C198.88 87.9147 199.073 87.7215 199.073 87.4769V65.6639C199.073 65.4192 198.88 65.2261 198.635 65.2261H196.845C196.6 65.2261 196.407 65.4192 196.407 65.6639V87.4769C196.407 87.7215 196.6 87.9147 196.845 87.9147ZM195.544 87.9147C195.493 87.7731 195.467 87.6314 195.467 87.4898V87.2065H177.865V65.9343H195.467V65.651C195.467 65.4965 195.493 65.3548 195.544 65.2261H176.023H175.65C175.405 65.2261 175.212 65.4192 175.212 65.6639V87.4769C175.212 87.7215 175.405 87.9147 175.65 87.9147H195.544ZM191.926 79.7509C191.926 79.6221 191.823 79.5191 191.694 79.5191H189.93C189.801 79.5191 189.698 79.6221 189.698 79.7509V86.009C189.698 86.1377 189.905 86.6657 190.819 86.6657C191.733 86.6657 191.926 86.1377 191.926 86.009V81.5408H195.57C195.57 81.5408 195.673 81.4893 195.673 81.4377V80.9356C195.673 80.9356 195.635 80.8325 195.57 80.8325H191.926V79.7509ZM183.943 82.1588H182.526C182.282 82.1975 182.101 82.3906 182.114 82.6224C182.114 82.7383 182.912 83.9487 184.02 84.7986C185.282 85.7643 186.878 86.3566 187.007 86.0733C187.11 85.8416 186.196 84.9144 185.501 83.9745C185.05 83.3692 184.728 82.5966 184.689 82.5451C184.496 82.2232 184.187 82.1331 183.943 82.1588ZM188.758 80.8325H179.088C179.088 80.8325 178.985 80.8712 178.985 80.9356V81.4377C178.985 81.4377 179.024 81.5408 179.088 81.5408H188.758V80.8325ZM192.184 70.4282C192.055 70.4282 191.952 70.5312 191.952 70.66V76.2485C191.952 76.3772 192.055 76.4802 192.184 76.4802H193.948C194.077 76.4802 194.18 76.3772 194.18 76.2485V70.66C194.18 70.5312 194.077 70.4282 193.948 70.4282H192.184ZM193.999 79.6093C194.205 79.841 194.411 79.9312 194.656 79.8153C194.656 79.8153 195.493 79.4547 195.364 79.0556C195.3 78.8624 195.042 78.3345 194.064 77.652C192.982 76.9052 191.694 76.7893 191.63 77.0468C191.591 77.2013 192.003 77.5619 192.506 77.9997L188.321 78.0769V76.4674H191.012C190.999 76.3901 190.986 76.3128 190.986 76.2356V75.7591H188.321V73.8534H190.986V73.1452H188.321V71.1236H190.986V70.6471C190.986 70.5699 190.986 70.4926 191.012 70.4153H188.321V69.1148H195.235C195.235 69.1148 195.338 69.0633 195.338 69.0118V68.5096C195.338 68.5096 195.287 68.4066 195.235 68.4066H188.321V67.0932C188.321 66.9644 188.218 66.8614 188.089 66.8614H186.325C186.196 66.8614 186.093 66.9644 186.093 67.0932V68.4066H179.062C179.062 68.4066 178.959 68.4581 178.959 68.5096V69.0118C178.959 69.0118 179.011 69.1148 179.062 69.1148H186.093V78.1156L179.835 78.2315C179.835 78.2315 179.732 78.283 179.732 78.3345V78.8367C179.732 78.8367 179.783 78.9397 179.848 78.9397L193.24 78.7079C193.626 79.1071 193.961 79.5835 193.986 79.6093H193.999ZM185.153 71.1236V70.4153H180.492C180.363 70.4153 180.26 70.5184 180.26 70.6471V76.2356C180.26 76.3644 180.363 76.4674 180.492 76.4674H185.153V75.7591H182.488V73.8534H185.153V73.1452H182.488V71.1236H185.153ZM84.9213 72.1537C84.7925 72.1537 84.6895 72.2567 84.6895 72.3855V80.6008C84.6895 80.7295 84.7925 80.8325 84.9213 80.8325H86.6854C86.8141 80.8325 86.9171 80.7295 86.9171 80.6008V72.3855C86.9171 72.2567 86.8141 72.1537 86.6854 72.1537H84.9213ZM93.0335 86.8459C93.2782 86.8459 93.4713 86.6528 93.4713 86.4081V66.7069C93.4713 66.4622 93.2782 66.2691 93.0335 66.2691H91.0377C90.793 66.2691 90.5999 66.4622 90.5999 66.7069V86.4081C90.5999 86.6528 90.793 86.8459 91.0377 86.8459H93.0335ZM89.6599 66.7197C89.6599 66.5652 89.6856 66.4236 89.7371 66.2948H70.1904C69.9457 66.2948 69.7526 66.488 69.7526 66.7326V86.4339C69.7526 86.6785 69.9457 86.8717 70.1904 86.8717H89.7371C89.6985 86.7301 89.6599 86.5884 89.6599 86.4468V86.1635H72.6112V67.0159H89.6599V66.7326V66.7197ZM83.7495 72.8748V72.3983C83.7495 72.3211 83.7495 72.2438 83.7752 72.1666H76.5772C76.4484 72.1666 76.3454 72.2696 76.3454 72.3983V80.6136C76.3454 80.7424 76.4484 80.8454 76.5772 80.8454H83.7752C83.7624 80.7682 83.7495 80.6909 83.7495 80.6136V80.1372H78.5731V72.8748H83.7495ZM57.7902 86.1506C58.2924 85.7514 58.3825 85.6098 58.64 85.3394C58.8976 85.069 58.8976 84.5539 58.3439 84.3479C58.0477 84.232 54.9316 83.086 52.2403 81.6309C50.3346 80.6008 49.1242 79.6736 48.2615 79.2358V79.2101H55.3822C55.6269 79.2101 55.82 79.0169 55.82 78.7723V69.9518C55.82 69.7071 55.6269 69.514 55.3822 69.514H47.3215V67.1189H57.9318C58.022 67.1189 58.0863 67.0545 58.0863 66.9644V66.5652C58.0863 66.4751 58.022 66.4107 57.9318 66.4107H47.3215V63.668C47.3215 63.4748 47.1283 63.3203 46.8965 63.3203H45.2226C44.9908 63.3203 44.7976 63.4748 44.7976 63.668V87.7473C44.7976 87.9662 44.9007 88.5843 46.0596 88.5843C47.2185 88.5843 47.3215 87.9662 47.3215 87.7473V80.1115C47.5661 80.3561 47.9009 80.6523 48.2743 80.9613C49.4461 81.9399 51.1329 83.189 52.9099 84.335C55.5368 86.0218 56.0261 86.1248 56.1935 86.2021C56.3609 86.2794 57.288 86.524 57.7773 86.1248L57.7902 86.1506ZM47.3215 70.2479H52.9614V73.8534H47.3215V70.2479ZM47.3215 78.5147V74.5616H52.9614V78.5147H47.3215ZM33.4533 67.1447H43.8448V66.4365H33.4533C33.3632 66.4365 33.2988 66.5008 33.2988 66.591V66.9902C33.2988 67.0803 33.3632 67.1447 33.4533 67.1447ZM43.8448 78.5147H38.4881V74.5616H43.8448V73.8534H38.4881V70.2479H43.8448V69.5397H36.0673C35.8355 69.5397 35.6295 69.7329 35.6295 69.9775V78.798C35.6295 79.0427 35.8226 79.2358 36.0673 79.2358H42.364C41.7588 79.9054 40.1492 81.5536 38.0632 82.9701C34.7539 85.2235 33.1057 85.3909 33.3117 86.112C33.4533 86.5884 36.9171 85.3523 40.4453 83.3306C41.7716 82.5709 42.9434 81.721 43.8319 80.9871V78.5276L43.8448 78.5147ZM114.692 74.8707C114.911 74.832 118.027 74.0723 119.804 73.6345C119.817 73.6474 119.843 73.6731 119.856 73.686C120.306 74.1109 120.718 74.7033 120.744 74.7419C120.95 74.9737 121.156 75.0638 121.401 74.9608C121.401 74.9608 122.238 74.6003 122.109 74.2011C122.045 74.0079 121.787 73.48 120.808 72.7975C119.727 72.0507 118.439 71.9348 118.375 72.1923C118.336 72.334 118.735 72.6816 119.212 73.1066L115.336 73.8663V71.5871H118.851C118.838 71.5099 118.825 71.4326 118.825 71.3553V70.8789H115.336V69.1019H118.825V68.3937H115.336V66.5395H118.825V66.063C118.825 65.9858 118.825 65.9085 118.851 65.8313H118.426C118.349 65.6896 118.259 65.5351 118.182 65.4192C117.654 64.5565 117.538 64.3891 117.473 64.3247C117.306 64.1573 117.126 64.1058 116.842 64.1702C116.508 64.2474 116.083 64.3376 115.941 64.5178C115.799 64.6852 115.761 64.8913 115.941 65.0973C116.044 65.2132 116.392 65.5609 116.675 65.8441H113.649C113.649 65.8441 113.61 65.8828 113.598 65.8956C113.546 65.9343 113.495 65.9987 113.495 66.0759V74.3813C113.495 74.3813 113.469 74.6904 113.688 74.8707C113.881 75.0252 114.344 74.935 114.666 74.8707H114.692ZM120.023 71.6H121.336C121.465 71.6 121.568 71.497 121.568 71.3682V66.0759C121.568 65.9471 121.465 65.8441 121.336 65.8441H120.023C119.894 65.8441 119.791 65.9471 119.791 66.0759V71.3682C119.791 71.497 119.894 71.6 120.023 71.6ZM122.264 87.5026V87.2194H111.833V85.1205H122.264V84.4123H111.833V82.1717H122.264V81.8884C122.264 81.7339 122.289 81.5923 122.341 81.4635H109.413C109.181 81.4635 108.988 81.6567 108.988 81.9013V87.5026C108.988 87.7473 109.181 87.9405 109.413 87.9405H122.341C122.289 87.7988 122.264 87.6572 122.264 87.5155V87.5026ZM108.344 68.8573C107.558 69.6942 106.503 70.66 106.296 70.8532C105.884 71.2394 105.55 71.5485 105.769 71.9605C106.052 72.5142 106.786 72.2181 107.288 72.1151C107.752 72.0249 109.335 71.6515 110.417 71.3811C110.044 71.9348 109.619 72.5014 109.168 72.952C107.133 75.0252 105.356 75.4372 105.563 75.7849C105.807 76.2356 108.524 75.1411 110.366 73.6345C112.336 72.012 113.392 69.6556 113.392 69.6556C113.392 69.4367 113.211 69.2436 112.979 69.2436L112.065 69.1792C111.833 69.1792 111.718 69.2436 111.537 69.5655C111.512 69.617 111.241 70.1063 110.855 70.7244L107.674 71.0849C108.125 70.8016 108.795 70.2866 109.593 69.6943C111.64 68.1748 112.22 67.2992 112.271 67.0803C112.323 66.8485 112.13 66.5781 111.898 66.5395L110.906 66.3334C110.675 66.2948 110.597 66.3592 110.34 66.6425C110.082 66.9258 109.322 67.84 108.357 68.8573H108.344ZM108.241 67.2734C109.825 65.9343 110.327 65.1488 110.391 64.9814C110.456 64.814 110.288 64.6209 110.095 64.5951L109.129 64.3118C108.936 64.2861 108.833 64.3376 108.653 64.5822C108.627 64.6209 107.958 65.7282 107.224 66.6167C106.193 67.8529 104.944 69.0375 105.009 69.2178C105.086 69.4238 106.85 68.4581 108.254 67.2863L108.241 67.2734ZM121.633 79.3131C121.903 79.1328 122.173 78.9268 122.418 78.695C123.062 78.1156 123.538 77.3687 123.731 77.0082H127.17C127.17 77.0082 127.273 76.9567 127.273 76.9052V76.403C127.273 76.403 127.221 76.3 127.17 76.3H118.993C118.993 76.3 118.98 76.2227 118.941 76.1712C118.388 75.3342 118.298 75.1411 118.233 75.0638C118.066 74.8964 117.885 74.8449 117.602 74.9093C117.267 74.9866 116.842 75.0767 116.701 75.257C116.559 75.4244 116.521 75.6304 116.701 75.8364C116.778 75.9265 116.933 76.1068 117.087 76.2871H107.855C107.855 76.2871 107.752 76.3386 107.752 76.3901V76.8923C107.752 76.8923 107.803 76.9953 107.855 76.9953H111.293C111.486 77.3687 111.975 78.1027 112.606 78.6821C112.851 78.9139 113.121 79.12 113.392 79.3002H105.215C105.215 79.3002 105.112 79.3517 105.112 79.4032V79.9054C105.112 79.9054 105.163 80.0084 105.215 80.0084H129.796C129.796 80.0084 129.899 79.9569 129.899 79.9054V79.4032C129.899 79.4032 129.848 79.3002 129.796 79.3002H121.62L121.633 79.3131ZM120.345 79.3131H114.705C114.486 78.9783 114.177 78.5534 113.907 78.1285C113.649 77.7035 113.469 77.2142 113.392 77.0082H121.671C121.594 77.2142 121.414 77.7164 121.156 78.1285C120.886 78.5534 120.577 78.9783 120.358 79.3131H120.345ZM125.637 87.9276C125.882 87.9276 126.075 87.7344 126.075 87.4898V81.8884C126.075 81.6438 125.882 81.4506 125.637 81.4506H123.641C123.397 81.4506 123.204 81.6438 123.204 81.8884V87.4898C123.204 87.7344 123.397 87.9276 123.641 87.9276H125.637ZM123.783 75.6819C124.543 75.6819 124.671 75.2698 124.671 75.1411V73.1066C124.942 73.4027 125.264 73.7118 125.65 73.9049C128.753 75.463 130.389 72.5786 129.539 70.6342C129.14 69.72 128.032 69.2049 127.453 69.0504C128.213 68.1877 129.153 66.797 129.565 66.2304C129.706 66.0373 129.758 65.9471 129.771 65.7926C129.771 65.6381 129.565 65.5351 129.397 65.4836C129.217 65.4321 128.728 65.3677 128.431 65.3677H123.139C123.01 65.3677 122.907 65.4707 122.907 65.5995V75.1411C122.907 75.2698 123.036 75.6819 123.796 75.6819H123.783ZM124.671 66.0888H127.582C127.208 67.0545 126.487 69.1663 126.616 69.308C126.745 69.4496 127.491 69.8745 127.852 70.3896C128.38 71.1364 128.483 72.7718 127.324 73.1452C126.268 73.48 125.29 72.9263 124.684 72.4241V66.0888H124.671ZM153.67 79.6994V78.2443C153.67 77.9997 153.477 77.8065 153.232 77.8065H151.506C151.262 77.8065 151.069 77.9997 151.069 78.2443V87.3224C151.069 87.567 151.223 88.3139 152.369 88.3139C153.515 88.3139 153.67 87.567 153.67 87.3224V80.4334H164.55C164.55 80.4334 164.653 80.3819 164.653 80.3304V79.8024C164.653 79.8024 164.602 79.6994 164.55 79.6994H153.67ZM140.304 79.8024V80.3304C140.304 80.3304 140.355 80.4334 140.407 80.4334H150.116V79.6994H140.407C140.407 79.6994 140.304 79.7509 140.304 79.8024ZM148.995 77.2271H153.502C153.451 77.0854 153.425 76.9438 153.425 76.8022V76.506H150.476V72.5786H153.425V71.8447H150.476V67.6855H153.425V67.3893C153.425 67.2348 153.451 67.0932 153.502 66.9644H152.627C152.897 66.6167 153.373 66.0115 153.502 65.8313C153.683 65.5737 153.618 65.3162 153.464 65.0844C153.296 64.8398 152.833 64.6852 152.472 64.5565C152.163 64.4406 151.97 64.4921 151.815 64.6981C151.751 64.7754 151.635 64.9943 151.159 66.063C151.03 66.3463 150.863 66.7841 150.785 66.9644H148.995C148.751 66.9644 148.558 67.1576 148.558 67.4022V76.815C148.558 77.0597 148.751 77.2528 148.995 77.2528V77.2271ZM154.803 77.2271H155.859C156.103 77.2271 156.296 77.0339 156.296 76.7893V67.3765C156.296 67.1447 156.103 66.9387 155.859 66.9387H154.803C154.558 66.9387 154.365 67.1318 154.365 67.3765V76.7893C154.365 77.0339 154.558 77.2271 154.803 77.2271ZM163.61 84.8501C163.108 84.4638 161.859 83.6397 159.722 82.6997C157.584 81.7468 155.447 81.2317 155.125 81.7468C154.829 82.2361 156.966 83.0602 159.413 84.5796C161.718 86.0733 162.374 86.8588 162.876 87.3095C163.301 87.6958 163.765 87.8246 164.19 87.3095C164.19 87.3095 164.589 86.5498 164.576 86.1248C164.563 85.6999 164.113 85.2364 163.598 84.8501H163.61ZM150.064 81.9914C150.116 81.7725 149.91 81.5021 149.678 81.4893C149.446 81.4893 148.519 81.4893 148.094 81.4893C147.682 81.4893 147.54 81.618 147.283 81.8756C147.18 81.9786 145.957 83.4851 144.051 84.6183C141.823 85.9446 139.776 86.4081 139.905 86.8073C140.085 87.3481 142.725 86.7944 145.609 85.4166C148.403 84.0775 150 82.2232 150.051 82.0043L150.064 81.9914ZM140.922 77.6778C141.166 77.6005 144.141 76.6863 145.854 76.1583C145.892 76.6863 145.905 77.0339 145.905 77.0854C145.931 77.4074 146.047 77.6005 146.33 77.6649C146.33 77.6649 147.502 77.8967 147.631 77.4975C147.695 77.3043 147.682 76.7249 147.399 75.5402C147.064 74.1367 146.369 72.9392 145.738 73.5444C145.544 73.7375 145.648 74.3942 145.751 75.2698L141.759 76.1455C142.518 75.4372 143.639 74.4715 144.643 73.4285C147.18 70.8274 147.978 69.2951 148.081 69.0118C148.184 68.7285 147.927 68.3551 147.618 68.3036L146.446 68.0718C146.137 68.0203 145.982 68.1362 145.699 68.5997C145.648 68.677 144.231 71.1107 142.982 72.8104C141.746 74.4844 140.638 75.7978 140.355 76.0939C140.085 76.3901 139.505 76.9438 139.621 77.1885C139.75 77.4331 140.278 77.858 140.896 77.6778H140.922ZM160.082 69.2436C161.898 67.0545 162.426 65.8441 162.477 65.5995C162.529 65.3548 162.297 65.0973 162.052 65.0973L160.816 64.8526C160.572 64.8526 160.443 64.9299 160.25 65.3162C160.224 65.3806 159.529 67.0803 158.717 68.471C157.584 70.4153 156.631 71.7288 156.734 71.9605C156.863 72.2438 158.473 71.1751 160.082 69.2436ZM143.265 69.2436C145.081 67.0545 145.609 65.8441 145.66 65.5995C145.712 65.3548 145.48 65.0973 145.235 65.0973L143.999 64.8526C143.755 64.8526 143.626 64.9299 143.446 65.3162C143.42 65.3806 142.725 67.0803 141.913 68.471C140.78 70.4153 139.827 71.7288 139.93 71.9605C140.059 72.2438 141.669 71.1751 143.278 69.2436H143.265ZM162.542 73.892C162.374 74.1109 162.58 74.7934 162.825 75.6819L158.666 76.1455C159.426 75.4372 160.546 74.4715 161.55 73.4285C164.087 70.8274 164.512 69.7586 164.615 69.4754C164.718 69.1921 164.46 68.8186 164.151 68.7671L162.979 68.5354C162.67 68.4838 162.516 68.5997 162.233 69.0633C162.181 69.1406 161.138 71.1107 159.889 72.8104C158.653 74.4844 157.546 75.7978 157.262 76.0939C156.992 76.3901 156.412 76.9438 156.528 77.1885C156.657 77.4331 157.185 77.858 157.803 77.6778C158.073 77.6005 161.344 76.7635 162.979 76.3386C163.121 76.9309 163.185 77.3301 163.198 77.3687C163.276 77.6778 163.417 77.858 163.701 77.8838C163.701 77.8838 164.898 77.9482 164.975 77.5233C165.014 77.3172 164.924 76.7506 164.473 75.6175C163.945 74.2655 163.082 73.1838 162.555 73.8792L162.542 73.892ZM0.398988 98.5122H3.01295V105.234H4.0302V98.5122H6.65704V97.6752H0.398988V98.5122ZM11.1896 97.6752L8.331 105.247H9.39976L10.2754 102.826H13.2885L14.2027 105.247H15.3101L12.4258 97.6752H11.1767H11.1896ZM10.5072 102.04L11.3699 99.7612C11.5373 99.3105 11.6532 98.9113 11.7691 98.5122H11.7948C11.9107 98.8985 12.0266 99.2977 12.2069 99.7741L13.0696 102.04H10.4943H10.5072ZM18.8898 105.247H19.9071V97.6752H18.8898V105.247ZM23.4482 98.5251H26.0621V105.247H27.0794V98.5251H29.7062V97.6881H23.4482V98.5251ZM38.1533 101.976C38.1533 103.753 37.3292 104.577 36.0544 104.577C34.8826 104.577 34.0328 103.779 34.0328 101.976V97.6881H33.0155V101.95C33.0155 104.461 34.3289 105.388 36.0029 105.388C37.8185 105.388 39.1834 104.371 39.1834 101.924V97.6881H38.1533V101.976ZM48.8023 101.01C48.8023 102.131 48.8023 103.045 48.9053 103.998H48.8795C48.4932 103.251 48.0297 102.517 47.3987 101.603L44.6302 97.6881H43.4713V105.26H44.4371V101.821C44.4371 100.688 44.4371 99.7998 44.3727 98.8598H44.4113C44.8234 99.6196 45.39 100.495 45.9952 101.371L48.725 105.272H49.7809V97.7009H48.8152V101.023L48.8023 101.01ZM57.7129 102.079H59.4255V104.255C59.1422 104.397 58.6272 104.5 57.8674 104.5C55.8072 104.5 54.571 103.238 54.571 101.461C54.571 99.6839 55.8329 98.4478 57.9704 98.4478C58.8589 98.4478 59.4384 98.6023 59.9148 98.8212L60.1724 98.01C59.8118 97.8426 59.0135 97.6237 58.0091 97.6237C55.0732 97.6237 53.5023 99.4908 53.5023 101.525C53.5023 102.633 53.9143 103.624 54.5968 104.268C55.408 105.028 56.4639 105.363 57.7773 105.363C58.9748 105.363 59.9534 105.066 60.4299 104.899V101.306H57.7V102.105L57.7129 102.079ZM73.8216 101.718H77.1051V100.881H73.8216V98.5122H77.2983V97.6752H72.8043V105.247H77.4786V104.41H73.8216V101.718ZM85.1788 98.3834C85.887 98.3834 86.5308 98.5379 86.9558 98.7439L87.2133 97.9327C86.9171 97.7911 86.2218 97.5464 85.1273 97.5464C82.3974 97.5464 80.7492 99.3492 80.7492 101.525C80.7492 103.985 82.5262 105.388 84.8826 105.388C85.9514 105.388 86.7884 105.169 87.1875 104.976L86.9687 104.178C86.5051 104.397 85.784 104.538 85.0887 104.538C82.9511 104.538 81.818 103.212 81.818 101.512C81.818 99.6324 83.067 98.3834 85.1659 98.3834H85.1788ZM96.1239 100.83H91.9519V97.6881H90.9347V105.26H91.9519V101.706H96.1239V105.26H97.1412V97.6881H96.1239V100.83ZM104.558 97.5464C102.305 97.5464 100.631 99.1946 100.631 101.551C100.631 103.753 102.215 105.375 104.468 105.375C106.721 105.375 108.421 103.895 108.421 101.371C108.421 99.1818 106.889 97.5336 104.571 97.5336L104.558 97.5464ZM104.507 104.577C102.768 104.577 101.7 103.161 101.7 101.525C101.7 99.89 102.678 98.3577 104.52 98.3577C106.361 98.3577 107.327 99.89 107.327 101.435C107.327 103.238 106.245 104.577 104.507 104.577ZM122.431 97.5464C120.178 97.5464 118.504 99.1946 118.504 101.551C118.504 103.753 120.087 105.375 122.341 105.375C124.594 105.375 126.294 103.895 126.294 101.371C126.294 99.1818 124.762 97.5336 122.431 97.5336V97.5464ZM122.379 104.577C120.641 104.577 119.572 103.161 119.572 101.525C119.572 99.89 120.551 98.3577 122.405 98.3577C124.259 98.3577 125.212 99.89 125.212 101.435C125.212 103.238 124.131 104.577 122.392 104.577H122.379ZM133.595 101.641V101.615C134.393 101.371 135.089 100.701 135.089 99.6968C135.089 99.1045 134.844 98.5894 134.471 98.2675C133.968 97.8297 133.247 97.6108 132.114 97.6108C131.367 97.6108 130.569 97.6881 130.028 97.7782V105.247H131.045V101.976H132.166C133.106 102.015 133.543 102.427 133.775 103.457C134.007 104.41 134.174 105.028 134.303 105.247H135.359C135.192 104.925 134.999 104.178 134.728 103.109C134.535 102.388 134.174 101.847 133.582 101.628L133.595 101.641ZM132.256 101.216H131.045V98.4993C131.226 98.4478 131.612 98.3963 132.179 98.3963C133.247 98.3963 134.071 98.7826 134.071 99.7998C134.071 100.65 133.376 101.216 132.256 101.216ZM143.085 98.3834C143.793 98.3834 144.437 98.5379 144.862 98.7439L145.12 97.9327C144.823 97.7911 144.128 97.5464 143.034 97.5464C140.304 97.5464 138.655 99.3492 138.655 101.525C138.655 103.985 140.432 105.388 142.789 105.388C143.858 105.388 144.695 105.169 145.094 104.976L144.875 104.178C144.398 104.397 143.69 104.538 142.995 104.538C140.857 104.538 139.724 103.212 139.724 101.512C139.724 99.6324 140.973 98.3834 143.072 98.3834H143.085ZM154.03 100.83H149.858V97.6881H148.841V105.26H149.858V101.706H154.03V105.26H155.047V97.6881H154.03V100.83ZM160.365 101.718H163.649V100.881H160.365V98.5122H163.842V97.6752H159.348V105.247H164.022V104.41H160.365V101.718ZM170.306 100.933C169.147 100.56 168.671 100.199 168.671 99.5166C168.671 99.0015 169.083 98.3705 170.216 98.3705C170.989 98.3705 171.568 98.6152 171.826 98.7697L172.122 97.9456C171.748 97.7396 171.117 97.5464 170.242 97.5464C168.684 97.5464 167.641 98.4349 167.641 99.6196C167.641 100.701 168.388 101.332 169.83 101.783C170.989 102.143 171.401 102.555 171.401 103.251C171.401 104.023 170.77 104.538 169.701 104.538C168.928 104.538 168.233 104.294 167.731 103.985L167.448 104.822C167.911 105.131 168.8 105.375 169.598 105.375C171.594 105.375 172.418 104.281 172.418 103.174C172.418 101.976 171.684 101.384 170.281 100.92L170.306 100.933ZM175.38 98.5251H177.994V105.247H179.011V98.5251H181.638V97.6881H175.38V98.5251ZM188.514 101.641V101.615C189.312 101.371 190.008 100.701 190.008 99.6968C190.008 99.1045 189.763 98.5894 189.389 98.2675C188.887 97.8297 188.166 97.6108 187.033 97.6108C186.286 97.6108 185.488 97.6881 184.947 97.7782V105.247H185.964V101.976H187.085C188.025 102.015 188.462 102.427 188.694 103.457C188.926 104.41 189.093 105.028 189.222 105.247H190.278C190.111 104.925 189.917 104.178 189.647 103.109C189.454 102.388 189.093 101.847 188.501 101.628L188.514 101.641ZM187.175 101.216H185.964V98.4993C186.145 98.4478 186.531 98.3963 187.097 98.3963C188.166 98.3963 188.99 98.7826 188.99 99.7998C188.99 100.65 188.295 101.216 187.175 101.216ZM197.103 97.6881H195.854L192.995 105.26H194.064L194.939 102.839H197.952L198.867 105.26H199.974L197.09 97.6881H197.103ZM195.171 102.053L196.034 99.7741C196.201 99.3234 196.317 98.9242 196.433 98.5251H196.459C196.575 98.9114 196.69 99.3105 196.871 99.787L197.733 102.053H195.158H195.171Z" fill="#2D3D8C"/>
<path d="M130.002 18.9597H137.818V16.3586H132.603C126.113 16.3586 121.452 11.8904 116.958 9.23782C116.185 8.80001 115.297 8.54248 114.344 8.54248C113.391 8.54248 112.502 8.80001 111.743 9.23782C107.262 11.8904 102.587 16.3586 96.0976 16.3586H70.0353H67.4342V34.6048H70.0353H83.0665C89.5563 34.6048 94.2176 30.1366 98.7116 27.484C99.4842 27.0333 100.373 26.7887 101.313 26.7887C102.253 26.7887 103.154 27.0462 103.927 27.484C108.408 30.1366 113.082 34.6048 119.572 34.6048H122.173H137.818V32.0037H122.173C115.683 32.0037 111.022 27.5355 106.528 24.8829C105.755 24.4323 104.867 24.1876 103.914 24.1876C102.961 24.1876 102.072 24.4451 101.313 24.8829C96.8316 27.5355 92.1574 32.0037 85.6675 32.0037H70.0224V26.7887H88.2686C94.7584 26.7887 99.4198 22.3205 103.914 19.6679C104.686 19.2172 105.575 18.9726 106.515 18.9726C107.455 18.9726 108.356 19.2301 109.129 19.6679C113.61 22.3205 118.284 26.7887 124.774 26.7887H137.805V24.1876H127.375C120.885 24.1876 116.224 19.7194 111.73 17.0668C110.957 16.629 110.069 16.3715 109.116 16.3715C108.163 16.3715 107.275 16.629 106.515 17.0668C102.034 19.7194 97.3595 24.1876 90.8697 24.1876H70.0095V18.9726H93.4708C99.9606 18.9726 104.622 14.5044 109.116 11.8518C109.888 11.4011 110.777 11.1564 111.717 11.1564C112.657 11.1564 113.558 11.414 114.331 11.8518C118.812 14.5044 123.486 18.9726 129.976 18.9726L130.002 18.9597Z" fill="#2D3D8C"/>
<path d="M116.958 39.8072C110.468 39.8072 105.807 35.339 101.313 32.6864C100.54 32.2486 99.6519 31.991 98.699 31.991C97.7461 31.991 96.8576 32.2486 96.0979 32.6864C91.6169 35.339 86.9426 39.8072 80.4528 39.8072H62.2066V11.1438H98.699C105.189 11.1438 109.85 6.67557 114.344 4.02298C115.117 3.5723 116.005 3.32764 116.945 3.32764C117.885 3.32764 118.787 3.58518 119.559 4.02298C124.04 6.67557 128.714 11.1438 135.204 11.1438H137.805V8.54268C131.316 8.54268 126.654 4.07449 122.16 1.4219C121.388 0.984095 120.499 0.726562 119.546 0.726562C118.593 0.726562 117.705 0.984095 116.945 1.4219C112.464 4.07449 107.79 8.54268 101.3 8.54268H62.1937H59.5927V42.4211H62.1937H77.8389C84.3287 42.4211 88.99 37.9529 93.484 35.3003C94.2566 34.8497 95.1451 34.605 96.0851 34.605C97.0251 34.605 97.9264 34.8625 98.699 35.3003C103.18 37.9529 107.854 42.4211 114.344 42.4211H116.945H137.805V39.82H116.945L116.958 39.8072Z" fill="#2D3D8C"/>
</g>
<defs>
<clipPath id="clip0_2009_2661">
<rect width="200" height="104.661" fill="white" transform="translate(0 0.714355)"/>
</clipPath>
</defs>
</svg>
