<svg width="20" height="21" viewBox="0 0 20 21" fill="none" xmlns="http://www.w3.org/2000/svg">
<path d="M13.1786 7.28571C13.1786 6.57531 12.8964 5.89401 12.394 5.39168C11.8917 4.88935 11.2104 4.60714 10.5 4.60714C9.7896 4.60714 9.10829 4.88935 8.60596 5.39168C8.10363 5.89401 7.82143 6.57531 7.82143 7.28571C7.82143 7.99612 8.10363 8.67742 8.60596 9.17975C9.10829 9.68208 9.7896 9.96429 10.5 9.96429C11.2104 9.96429 11.8917 9.68208 12.394 9.17975C12.8964 8.67742 13.1786 7.99612 13.1786 7.28571ZM6.21429 7.28571C6.21429 6.14907 6.66581 5.05898 7.46954 4.25526C8.27327 3.45153 9.36336 3 10.5 3C11.6366 3 12.7267 3.45153 13.5305 4.25526C14.3342 5.05898 14.7857 6.14907 14.7857 7.28571C14.7857 8.42236 14.3342 9.51244 13.5305 10.3162C12.7267 11.1199 11.6366 11.5714 10.5 11.5714C9.36336 11.5714 8.27327 11.1199 7.46954 10.3162C6.66581 9.51244 6.21429 8.42236 6.21429 7.28571ZM4.65067 17.5833H16.3527C16.0547 15.4639 14.2333 13.8333 12.0335 13.8333H8.97321C6.77344 13.8333 4.95201 15.4639 4.65402 17.5833H4.65067ZM3 18.1961C3 14.8981 5.67188 12.2262 8.96987 12.2262H12.0301C15.3281 12.2262 18 14.8981 18 18.1961C18 18.7452 17.5547 19.1905 17.0056 19.1905H3.99442C3.44531 19.1905 3 18.7452 3 18.1961Z" fill="#231815"/>
</svg>
