<svg width="20" height="21" viewBox="0 0 20 21" fill="none" xmlns="http://www.w3.org/2000/svg">
<path d="M3.65 5.65V13.075H16.85V5.65H3.65ZM2 5.65C2 4.73992 2.73992 4 3.65 4H16.85C17.7601 4 18.5 4.73992 18.5 5.65V13.075C18.5 13.9851 17.7601 14.725 16.85 14.725H3.65C2.73992 14.725 2 13.9851 2 13.075V5.65ZM5.3 15.55H15.2C15.6563 15.55 16.025 15.9187 16.025 16.375C16.025 16.8313 15.6563 17.2 15.2 17.2H5.3C4.84367 17.2 4.475 16.8313 4.475 16.375C4.475 15.9187 4.84367 15.55 5.3 15.55Z" fill="#231815"/>
</svg>
