<svg width="20" height="21" viewBox="0 0 20 21" fill="none" xmlns="http://www.w3.org/2000/svg">
<path d="M16.5 11C16.5 9.27609 15.8152 7.62279 14.5962 6.40381C13.3772 5.18482 11.7239 4.5 10 4.5C8.27609 4.5 6.62279 5.18482 5.40381 6.40381C4.18482 7.62279 3.5 9.27609 3.5 11C3.5 12.7239 4.18482 14.3772 5.40381 15.5962C6.62279 16.8152 8.27609 17.5 10 17.5C11.7239 17.5 13.3772 16.8152 14.5962 15.5962C15.8152 14.3772 16.5 12.7239 16.5 11ZM2 11C2 8.87827 2.84285 6.84344 4.34315 5.34315C5.84344 3.84285 7.87827 3 10 3C12.1217 3 14.1566 3.84285 15.6569 5.34315C17.1571 6.84344 18 8.87827 18 11C18 13.1217 17.1571 15.1566 15.6569 16.6569C14.1566 18.1571 12.1217 19 10 19C7.87827 19 5.84344 18.1571 4.34315 16.6569C2.84285 15.1566 2 13.1217 2 11ZM7.30625 8.16563C7.55312 7.46875 8.21563 7 8.95625 7H10.7781C11.8687 7 12.75 7.88438 12.75 8.97188C12.75 9.67813 12.3719 10.3312 11.7594 10.6844L10.75 11.2625C10.7437 11.6687 10.4094 12 10 12C9.58437 12 9.25 11.6656 9.25 11.25V10.8281C9.25 10.5594 9.39375 10.3125 9.62813 10.1781L11.0125 9.38438C11.1594 9.3 11.25 9.14375 11.25 8.975C11.25 8.7125 11.0375 8.50313 10.7781 8.50313H8.95625C8.85 8.50313 8.75625 8.56875 8.72188 8.66875L8.70937 8.70625C8.57188 9.09688 8.14062 9.3 7.75313 9.1625C7.36563 9.025 7.15938 8.59375 7.29688 8.20625L7.30937 8.16875L7.30625 8.16563ZM9 14C9 13.7348 9.10536 13.4804 9.29289 13.2929C9.48043 13.1054 9.73478 13 10 13C10.2652 13 10.5196 13.1054 10.7071 13.2929C10.8946 13.4804 11 13.7348 11 14C11 14.2652 10.8946 14.5196 10.7071 14.7071C10.5196 14.8946 10.2652 15 10 15C9.73478 15 9.48043 14.8946 9.29289 14.7071C9.10536 14.5196 9 14.2652 9 14Z" fill="#231815"/>
</svg>
