<svg width="20" height="21" viewBox="0 0 20 21" fill="none" xmlns="http://www.w3.org/2000/svg">
<path d="M6.80444 19.0148C6.36403 19.0148 5.98702 18.858 5.67339 18.5444C5.35977 18.2307 5.20296 17.8537 5.20296 17.4133C5.20296 16.9729 5.35977 16.5959 5.67339 16.2823C5.98702 15.9686 6.36403 15.8118 6.80444 15.8118C7.24485 15.8118 7.62186 15.9686 7.93548 16.2823C8.24911 16.5959 8.40592 16.9729 8.40592 17.4133C8.40592 17.8537 8.24911 18.2307 7.93548 18.5444C7.62186 18.858 7.24485 19.0148 6.80444 19.0148ZM14.8118 19.0148C14.3714 19.0148 13.9944 18.858 13.6808 18.5444C13.3672 18.2307 13.2104 17.8537 13.2104 17.4133C13.2104 16.9729 13.3672 16.5959 13.6808 16.2823C13.9944 15.9686 14.3714 15.8118 14.8118 15.8118C15.2522 15.8118 15.6293 15.9686 15.9429 16.2823C16.2565 16.5959 16.4133 16.9729 16.4133 17.4133C16.4133 17.8537 16.2565 18.2307 15.9429 18.5444C15.6293 18.858 15.2522 19.0148 14.8118 19.0148ZM6.12381 6.20296L8.04559 10.2067H13.6508L15.8528 6.20296H6.12381ZM5.36311 4.60148H17.174C17.481 4.60148 17.7145 4.73827 17.8747 5.01186C18.0348 5.28544 18.0415 5.56237 17.8947 5.84263L15.0521 10.9674C14.9053 11.2343 14.7084 11.4411 14.4615 11.5879C14.2146 11.7347 13.9444 11.8081 13.6508 11.8081H7.68525L6.80444 13.4096H16.4133V15.0111H6.80444C6.20388 15.0111 5.75013 14.7475 5.44318 14.2204C5.13623 13.6932 5.12289 13.1694 5.40314 12.6489L6.48414 10.6871L3.60148 4.60148H2V3H4.6024L5.36311 4.60148Z" fill="#231815"/>
</svg>
