<svg width="20" height="21" viewBox="0 0 20 21" fill="none" xmlns="http://www.w3.org/2000/svg">
<path d="M4 6.5C3.725 6.5 3.5 6.725 3.5 7V7.69063L8.89062 12.1156C9.5375 12.6469 10.4656 12.6469 11.1125 12.1156L16.5 7.69063V7C16.5 6.725 16.275 6.5 16 6.5H4ZM3.5 9.63125V15C3.5 15.275 3.725 15.5 4 15.5H16C16.275 15.5 16.5 15.275 16.5 15V9.63125L12.0625 13.275C10.8625 14.2594 9.13438 14.2594 7.9375 13.275L3.5 9.63125ZM2 7C2 5.89688 2.89688 5 4 5H16C17.1031 5 18 5.89688 18 7V15C18 16.1031 17.1031 17 16 17H4C2.89688 17 2 16.1031 2 15V7Z" fill="#231815"/>
</svg>
