<svg width="20" height="21" viewBox="0 0 20 21" fill="none" xmlns="http://www.w3.org/2000/svg">
<path d="M15 9.5C15 10.9344 14.5344 12.2594 13.75 13.3344L17.7062 17.2937C18.0969 17.6844 18.0969 18.3187 17.7062 18.7094C17.3156 19.1 16.6812 19.1 16.2906 18.7094L12.3344 14.75C11.2594 15.5375 9.93437 16 8.5 16C4.90937 16 2 13.0906 2 9.5C2 5.90937 4.90937 3 8.5 3C12.0906 3 15 5.90937 15 9.5ZM8.5 14C9.09095 14 9.67611 13.8836 10.2221 13.6575C10.768 13.4313 11.2641 13.0998 11.682 12.682C12.0998 12.2641 12.4313 11.768 12.6575 11.2221C12.8836 10.6761 13 10.0909 13 9.5C13 8.90905 12.8836 8.32389 12.6575 7.77792C12.4313 7.23196 12.0998 6.73588 11.682 6.31802C11.2641 5.90016 10.768 5.56869 10.2221 5.34254C9.67611 5.1164 9.09095 5 8.5 5C7.90905 5 7.32389 5.1164 6.77792 5.34254C6.23196 5.56869 5.73588 5.90016 5.31802 6.31802C4.90016 6.73588 4.56869 7.23196 4.34254 7.77792C4.1164 8.32389 4 8.90905 4 9.5C4 10.0909 4.1164 10.6761 4.34254 11.2221C4.56869 11.768 4.90016 12.2641 5.31802 12.682C5.73588 13.0998 6.23196 13.4313 6.77792 13.6575C7.32389 13.8836 7.90905 14 8.5 14Z" fill="#231815"/>
</svg>
