<svg width="30" height="31" viewBox="0 0 30 31" fill="none" xmlns="http://www.w3.org/2000/svg">
<g clip-path="url(#clip0_5_307)">
<path d="M15.0074 0.976562C8.83897 0.976562 7.03493 0.982926 6.68426 1.01202C5.41839 1.11724 4.63069 1.31655 3.77253 1.74381C3.11119 2.07221 2.58961 2.45288 2.07486 2.9865C1.13739 3.95965 0.569221 5.15689 0.363545 6.58003C0.263548 7.27092 0.234458 7.41182 0.228549 10.9408C0.226276 12.1171 0.228549 13.6653 0.228549 15.7418C0.228549 21.9052 0.235367 23.7075 0.264912 24.0575C0.367181 25.2892 0.560357 26.0642 0.969436 26.9119C1.75123 28.5346 3.24437 29.7527 5.0034 30.2073C5.61248 30.3641 6.28518 30.4504 7.14879 30.4914C7.51469 30.5073 11.2441 30.5186 14.9758 30.5186C18.7075 30.5186 22.4392 30.5141 22.796 30.4959C23.796 30.4489 24.3767 30.3709 25.0187 30.205C26.7891 29.7482 28.255 28.5482 29.0527 26.9028C29.4538 26.0756 29.6572 25.2711 29.7492 24.1036C29.7692 23.8491 29.7777 19.7908 29.7777 15.7379C29.7777 11.6844 29.7686 7.63363 29.7486 7.3791C29.6554 6.19277 29.452 5.39506 29.0379 4.55191C28.6981 3.8617 28.3209 3.34626 27.7732 2.81923C26.7957 1.88563 25.6003 1.31746 24.1758 1.11201C23.4856 1.01224 23.3481 0.982699 19.8164 0.976562H15.0074Z" fill="white"/>
<path d="M15.0005 4.84009C12.0379 4.84009 11.666 4.85304 10.5024 4.906C9.34112 4.95918 8.54841 5.14303 7.8548 5.4128C7.13732 5.69143 6.5287 6.06414 5.92236 6.67071C5.31556 7.27706 4.94284 7.88568 4.6633 8.60293C4.39286 9.29677 4.20877 10.0897 4.1565 11.2506C4.10446 12.4142 4.09082 12.7862 4.09082 15.7488C4.09082 18.7115 4.104 19.0822 4.15673 20.2458C4.21014 21.4071 4.39399 22.1998 4.66353 22.8934C4.94239 23.6109 5.3151 24.2195 5.92167 24.8258C6.52779 25.4326 7.13641 25.8063 7.85343 26.0849C8.5475 26.3547 9.34043 26.5385 10.5015 26.5917C11.6651 26.6447 12.0367 26.6576 14.9991 26.6576C17.962 26.6576 18.3327 26.6447 19.4963 26.5917C20.6576 26.5385 21.4512 26.3547 22.1453 26.0849C22.8625 25.8063 23.4702 25.4326 24.0764 24.8258C24.6832 24.2195 25.0559 23.6109 25.3354 22.8936C25.6036 22.1998 25.7877 21.4069 25.8422 20.246C25.8945 19.0824 25.9081 18.7115 25.9081 15.7488C25.9081 12.7862 25.8945 12.4144 25.8422 11.2508C25.7877 10.0895 25.6036 9.29677 25.3354 8.60316C25.0559 7.88568 24.6832 7.27706 24.0764 6.67071C23.4696 6.06391 22.8628 5.6912 22.1446 5.4128C21.4492 5.14303 20.656 4.95918 19.4947 4.906C18.3311 4.85304 17.9606 4.84009 14.9971 4.84009H15.0005ZM14.0219 6.80594C14.3123 6.80548 14.6364 6.80594 15.0005 6.80594C17.9131 6.80594 18.2583 6.81639 19.4085 6.86866C20.4721 6.9173 21.0494 7.09502 21.4339 7.24433C21.943 7.44205 22.306 7.67841 22.6875 8.06022C23.0693 8.44202 23.3057 8.80565 23.5039 9.31472C23.6532 9.6988 23.8311 10.2761 23.8795 11.3397C23.9318 12.4896 23.9432 12.8351 23.9432 15.7463C23.9432 18.6576 23.9318 19.0031 23.8795 20.153C23.8309 21.2166 23.6532 21.7939 23.5039 22.178C23.3061 22.687 23.0693 23.0495 22.6875 23.4311C22.3057 23.8129 21.9432 24.0493 21.4339 24.247C21.0499 24.397 20.4721 24.5743 19.4085 24.6229C18.2586 24.6752 17.9131 24.6865 15.0005 24.6865C12.0876 24.6865 11.7424 24.6752 10.5924 24.6229C9.52884 24.5738 8.95158 24.3961 8.56682 24.2468C8.05775 24.0491 7.69412 23.8127 7.31231 23.4309C6.93051 23.0491 6.69415 22.6864 6.49597 22.1771C6.34666 21.793 6.16871 21.2157 6.1203 20.1521C6.06803 19.0022 6.05758 18.6567 6.05758 15.7436C6.05758 12.8305 6.06803 12.4869 6.1203 11.3369C6.16894 10.2733 6.34666 9.69608 6.49597 9.31154C6.6937 8.80247 6.93051 8.43884 7.31231 8.05704C7.69412 7.67523 8.05775 7.43887 8.56682 7.2407C8.95135 7.0907 9.52884 6.91343 10.5924 6.86457C11.5988 6.81912 11.9888 6.80548 14.0219 6.80321V6.80594ZM20.8235 8.61725C20.1008 8.61725 19.5144 9.20291 19.5144 9.92584C19.5144 10.6485 20.1008 11.2349 20.8235 11.2349C21.5462 11.2349 22.1325 10.6485 22.1325 9.92584C22.1325 9.20314 21.5462 8.61679 20.8235 8.61679V8.61725ZM15.0005 10.1467C11.9067 10.1467 9.39839 12.6551 9.39839 15.7488C9.39839 18.8426 11.9067 21.3498 15.0005 21.3498C18.0943 21.3498 20.6017 18.8426 20.6017 15.7488C20.6017 12.6551 18.0943 10.1467 15.0005 10.1467ZM15.0005 12.1126C17.0086 12.1126 18.6367 13.7405 18.6367 15.7488C18.6367 17.757 17.0086 19.3851 15.0005 19.3851C12.9921 19.3851 11.3642 17.757 11.3642 15.7488C11.3642 13.7405 12.9921 12.1126 15.0005 12.1126Z" fill="#231815"/>
</g>
<defs>
<clipPath id="clip0_5_307">
<rect width="30" height="29.9991" fill="white" transform="translate(0 0.749023)"/>
</clipPath>
</defs>
</svg>
