<svg width="30" height="31" viewBox="0 0 30 31" fill="none" xmlns="http://www.w3.org/2000/svg">
<g clip-path="url(#clip0_5_311)">
<path d="M23.2369 0.749023H6.76312C3.02795 0.749023 0 3.77698 0 7.51215V23.9859C0 27.7211 3.02795 30.749 6.76312 30.749H23.2369C26.972 30.749 30 27.7211 30 23.9859V7.51215C30 3.77698 26.972 0.749023 23.2369 0.749023Z" fill="white"/>
<path d="M14.9971 6.21826C20.5124 6.21826 24.999 9.85982 24.999 14.3354C24.9989 16.1241 24.3048 17.7406 22.8555 19.3296C20.7573 21.7455 16.0649 24.6882 14.9971 25.1372C13.9298 25.5859 14.0868 24.8504 14.1309 24.5972C14.1562 24.4472 14.2734 23.7407 14.2734 23.7407C14.3072 23.4858 14.3423 23.0895 14.2412 22.8364C14.1296 22.558 13.6856 22.4136 13.3594 22.3433C8.55768 21.7086 4.9953 18.3478 4.99512 14.3354C4.99512 9.85989 9.48186 6.21836 14.9971 6.21826ZM17.0889 12.1724C17.0393 12.1724 16.9912 12.1921 16.9561 12.2271C16.921 12.2622 16.9014 12.3102 16.9014 12.3599V14.9526L14.9043 12.2554C14.8998 12.2484 14.8946 12.2416 14.8887 12.2358L14.877 12.2251L14.8672 12.2163H14.8613L14.8516 12.2085H14.8457L14.835 12.2036H14.041C13.9914 12.2036 13.9433 12.2233 13.9082 12.2583C13.8732 12.2934 13.8536 12.3416 13.8535 12.3911V16.7554C13.8535 16.805 13.8732 16.853 13.9082 16.8882C13.9433 16.9233 13.9913 16.9428 14.041 16.9429H14.751C14.8006 16.9428 14.8487 16.9233 14.8838 16.8882C14.9186 16.8531 14.9385 16.8048 14.9385 16.7554V14.1372L16.9385 16.8374C16.9515 16.8563 16.9674 16.8732 16.9863 16.8862L16.998 16.894H17.0039L17.0127 16.8979H17.042C17.0585 16.902 17.0758 16.9045 17.0928 16.9048H17.7979C17.8474 16.9047 17.8956 16.8852 17.9307 16.8501C17.9656 16.815 17.9854 16.7668 17.9854 16.7173V12.3638C17.9858 12.3389 17.9808 12.3136 17.9717 12.2905C17.9625 12.2676 17.9489 12.2467 17.9316 12.229C17.9142 12.2112 17.8931 12.1967 17.8701 12.187C17.8473 12.1775 17.8226 12.1724 17.7979 12.1724H17.0889ZM8.46777 12.1802C8.41816 12.1802 8.3701 12.1999 8.33496 12.2349C8.30001 12.2699 8.28034 12.3181 8.28027 12.3677V16.729C8.28027 16.7786 8.29991 16.8267 8.33496 16.8618C8.37012 16.897 8.41805 16.9165 8.46777 16.9165H11.2803L11.2773 16.9194C11.327 16.9194 11.3751 16.8999 11.4102 16.8647C11.4451 16.8296 11.4648 16.7815 11.4648 16.7319V16.0229C11.4647 15.9736 11.445 15.9261 11.4102 15.8911C11.3751 15.856 11.327 15.8355 11.2773 15.8354H9.36816V12.3677C9.3681 12.318 9.34761 12.27 9.3125 12.2349C9.27749 12.1999 9.23014 12.1803 9.18066 12.1802H8.46777ZM12.2598 12.1724C12.1543 12.1725 12.0685 12.2583 12.0684 12.3638V16.729C12.0686 16.8344 12.1544 16.9193 12.2598 16.9194H12.9688C13.0741 16.9193 13.1599 16.8344 13.1602 16.729V12.3638C13.16 12.2583 13.0742 12.1725 12.9688 12.1724H12.2598ZM18.8594 12.1812C18.8098 12.1812 18.7617 12.2008 18.7266 12.2358C18.6915 12.2709 18.6719 12.319 18.6719 12.3687V16.7319C18.6719 16.7817 18.6914 16.8296 18.7266 16.8647C18.7617 16.8999 18.8096 16.9194 18.8594 16.9194H21.6719C21.6969 16.9194 21.7221 16.9145 21.7451 16.9048C21.7681 16.895 21.7893 16.8807 21.8066 16.8628C21.824 16.8447 21.8377 16.8227 21.8467 16.7993C21.8555 16.776 21.8602 16.751 21.8594 16.7261V16.0171C21.8593 15.9674 21.8388 15.9194 21.8037 15.8843C21.7687 15.8494 21.7213 15.8298 21.6719 15.8296H19.7617V15.0923H21.6719C21.7213 15.0921 21.7687 15.0725 21.8037 15.0376C21.8387 15.0025 21.8594 14.9544 21.8594 14.9048V14.189C21.8593 14.1393 21.8388 14.0913 21.8037 14.0562C21.7687 14.0213 21.7213 14.0016 21.6719 14.0015H19.7617V13.2651H21.6719C21.7213 13.265 21.7687 13.2454 21.8037 13.2104C21.8387 13.1753 21.8594 13.1272 21.8594 13.0776V12.3687C21.8593 12.319 21.8388 12.2709 21.8037 12.2358C21.7687 12.2009 21.7213 12.1813 21.6719 12.1812H18.8594Z" fill="#231815"/>
</g>
<defs>
<clipPath id="clip0_5_311">
<rect width="30" height="30" fill="white" transform="translate(0 0.749023)"/>
</clipPath>
</defs>
</svg>
