<svg width="30" height="31" viewBox="0 0 30 31" fill="none" xmlns="http://www.w3.org/2000/svg">
<g clip-path="url(#clip0_33_362)">
<path d="M23.2369 1H6.76312C3.02795 1 0 4.02795 0 7.76312V24.2369C0 27.972 3.02795 31 6.76312 31H23.2369C26.972 31 30 27.972 30 24.2369V7.76312C30 4.02795 26.972 1 23.2369 1Z" fill="white"/>
<path d="M14.7148 9.34961C14.7428 9.34961 20.5256 9.35094 21.9697 9.73828C22.7692 9.9523 23.3973 10.5804 23.6113 11.3799C23.9972 12.8243 24 15.8361 24 15.8496C24 15.8496 23.9996 18.8717 23.6113 20.3193C23.3974 21.1188 22.7692 21.747 21.9697 21.9609C20.5256 22.3483 14.7428 22.3496 14.7148 22.3496C14.7148 22.3496 8.90783 22.3492 7.45996 21.9609C6.66048 21.747 6.03237 21.1188 5.81836 20.3193C5.43009 18.8717 5.42969 15.8496 5.42969 15.8496C5.42969 15.8361 5.43095 12.8243 5.81836 11.3799C6.03239 10.5804 6.6605 9.95229 7.45996 9.73828C8.90785 9.35004 14.7148 9.34961 14.7148 9.34961ZM12.8564 18.6348L17.6807 15.8496L12.8564 13.0645V18.6348Z" fill="#231815"/>
</g>
<defs>
<clipPath id="clip0_33_362">
<rect width="30" height="30" fill="white" transform="translate(0 0.749023)"/>
</clipPath>
</defs>
</svg>
