<svg width="30" height="31" viewBox="0 0 30 31" fill="none" xmlns="http://www.w3.org/2000/svg">
<g clip-path="url(#clip0_5_304)">
<path d="M12.525 30.599C5.4 29.324 0 23.174 0 15.749C0 7.49902 6.75 0.749023 15 0.749023C23.25 0.749023 30 7.49902 30 15.749C30 23.174 24.6 29.324 17.475 30.599L16.65 29.924H13.35L12.525 30.599Z" fill="white"/>
<path d="M20.8501 19.9491L21.5251 15.7491H17.5501V12.8241C17.5501 11.6241 18.0001 10.7241 19.8001 10.7241H21.7501V6.89912C20.7001 6.74912 19.5001 6.59912 18.4501 6.59912C15.0001 6.59912 12.6001 8.69912 12.6001 12.4491V15.7491H8.8501V19.9491H12.6001V30.5241C13.4251 30.6741 14.2501 30.7491 15.0751 30.7491C15.9001 30.7491 16.7251 30.6741 17.5501 30.5241V19.9491H20.8501Z" fill="#231815"/>
</g>
<defs>
<clipPath id="clip0_5_304">
<rect width="30" height="30" fill="white" transform="translate(0 0.749023)"/>
</clipPath>
</defs>
</svg>
